<svg width="22" height="22" viewBox="0 0 22 22" fill="none" xmlns="http://www.w3.org/2000/svg">
<path d="M20.3955 11.0015C20.3775 10.3555 20.1805 9.72647 19.8255 9.18547C19.4715 8.64547 18.9735 8.21347 18.3875 7.93947C18.6105 7.33247 18.6575 6.67547 18.5275 6.04247C18.3965 5.40847 18.0905 4.82447 17.6455 4.35547C17.1755 3.91047 16.5925 3.60547 15.9585 3.47347C15.3255 3.34347 14.6685 3.39047 14.0615 3.61347C13.7885 3.02647 13.3575 2.52747 12.8165 2.17347C12.2755 1.81947 11.6465 1.62147 10.9995 1.60547C10.3535 1.62247 9.72652 1.81847 9.18652 2.17347C8.64652 2.52847 8.21752 3.02747 7.94652 3.61347C7.33852 3.39047 6.67952 3.34147 6.04452 3.47347C5.40952 3.60347 4.82452 3.90947 4.35452 4.35547C3.90952 4.82547 3.60552 5.41047 3.47652 6.04347C3.34652 6.67647 3.39652 7.33347 3.62052 7.93947C3.03352 8.21347 2.53352 8.64447 2.17752 9.18447C1.82152 9.72447 1.62252 10.3545 1.60352 11.0015C1.62352 11.6485 1.82152 12.2775 2.17752 12.8185C2.53352 13.3585 3.03352 13.7905 3.62052 14.0635C3.39652 14.6695 3.34652 15.3265 3.47652 15.9595C3.60652 16.5935 3.90952 17.1775 4.35352 17.6475C4.82352 18.0905 5.40752 18.3945 6.04052 18.5255C6.67352 18.6575 7.33052 18.6095 7.93752 18.3895C8.21152 18.9755 8.64252 19.4735 9.18352 19.8285C9.72352 20.1825 10.3535 20.3795 10.9995 20.3975C11.6465 20.3815 12.2755 20.1845 12.8165 19.8305C13.3575 19.4765 13.7885 18.9765 14.0615 18.3905C14.6655 18.6295 15.3275 18.6865 15.9645 18.5545C16.6005 18.4225 17.1845 18.1075 17.6445 17.6475C18.1045 17.1875 18.4205 16.6035 18.5525 15.9665C18.6845 15.3295 18.6275 14.6675 18.3875 14.0635C18.9735 13.7895 19.4715 13.3585 19.8265 12.8175C20.1805 12.2775 20.3775 11.6475 20.3955 11.0015ZM9.66152 14.8515L6.23252 11.4235L7.52552 10.1215L9.59752 12.1935L13.9975 7.39947L15.3445 8.64547L9.66152 14.8515Z" fill="#1D9BF0"/>
</svg>
