<svg width="380" height="380" viewBox="0 0 380 380" fill="none" xmlns="http://www.w3.org/2000/svg">
<rect x="0.5" y="0.5" width="379" height="379" fill="black"/>
<rect x="0.5" y="0.5" width="379" height="379" stroke="white"/>
<mask id="path-2-inside-1_315_3010" fill="white">
<path fill-rule="evenodd" clip-rule="evenodd" d="M140 107H128V95H140V107ZM112 123H124V111H112V123ZM124 139H112V127H124V139ZM112 155H124V143H112V155ZM124 171H112V159H124V171ZM112 187H124V175H112V187ZM124 203H112V191H124V203ZM112 219H124V207H112V219ZM124 235H112V223H124V235ZM112 251H124V239H112V251ZM124 267H112V255H124V267ZM112 283H124V271H112V283ZM124 299H112V287H124V299ZM112 315H124V303H112V315ZM112 331H124V319H112V331ZM124 347H112V335H124V347ZM124 363H112V351H124V363ZM128 379H140V367H128V379ZM144 379H156V367H144V379ZM112 379H124V367H112V379ZM140 363H128V351H140V363ZM144 363H156V351H144V363ZM128 347H140V335H128V347ZM156 347H144V335H156V347ZM140 331H128V319H140V331ZM144 331H156V319H144V331ZM172 331H160V319H172V331ZM176 331H188V319H176V331ZM204 331H192V319H204V331ZM208 331H220V319H208V331ZM236 331H224V319H236V331ZM140 315H128V303H140V315ZM144 315H156V303H144V315ZM172 315H160V303H172V315ZM176 315H188V303H176V315ZM204 315H192V303H204V315ZM208 315H220V303H208V315ZM236 315H224V303H236V315ZM240 315H252V303H240V315ZM128 299H140V287H128V299ZM156 299H144V287H156V299ZM160 299H172V287H160V299ZM188 299H176V287H188V299ZM192 299H204V287H192V299ZM220 299H208V287H220V299ZM224 299H236V287H224V299ZM252 299H240V287H252V299ZM140 283H128V271H140V283ZM144 283H156V271H144V283ZM172 283H160V271H172V283ZM176 283H188V271H176V283ZM204 283H192V271H204V283ZM208 283H220V271H208V283ZM236 283H224V271H236V283ZM240 283H252V271H240V283ZM128 267H140V255H128V267ZM156 267H144V255H156V267ZM160 267H172V255H160V267ZM188 267H176V255H188V267ZM192 267H204V255H192V267ZM220 267H208V255H220V267ZM224 267H236V255H224V267ZM252 267H240V255H252V267ZM140 251H128V239H140V251ZM144 251H156V239H144V251ZM172 251H160V239H172V251ZM176 251H188V239H176V251ZM204 251H192V239H204V251ZM208 251H220V239H208V251ZM236 251H224V239H236V251ZM240 251H252V239H240V251ZM128 235H140V223H128V235ZM156 235H144V223H156V235ZM160 235H172V223H160V235ZM188 235H176V223H188V235ZM192 235H204V223H192V235ZM220 235H208V223H220V235ZM224 235H236V223H224V235ZM252 235H240V223H252V235ZM140 219H128V207H140V219ZM144 219H156V207H144V219ZM172 219H160V207H172V219ZM176 219H188V207H176V219ZM204 219H192V207H204V219ZM208 219H220V207H208V219ZM236 219H224V207H236V219ZM240 219H252V207H240V219ZM128 203H140V191H128V203ZM156 203H144V191H156V203ZM160 203H172V191H160V203ZM188 203H176V191H188V203ZM192 203H204V191H192V203ZM220 203H208V191H220V203ZM224 203H236V191H224V203ZM252 203H240V191H252V203ZM140 187H128V175H140V187ZM144 187H156V175H144V187ZM172 187H160V175H172V187ZM176 187H188V175H176V187ZM204 187H192V175H204V187ZM208 187H220V175H208V187ZM236 187H224V175H236V187ZM240 187H252V175H240V187ZM128 171H140V159H128V171ZM156 171H144V159H156V171ZM160 171H172V159H160V171ZM188 171H176V159H188V171ZM192 171H204V159H192V171ZM220 171H208V159H220V171ZM224 171H236V159H224V171ZM252 171H240V159H252V171ZM140 155H128V143H140V155ZM144 155H156V143H144V155ZM172 155H160V143H172V155ZM176 155H188V143H176V155ZM204 155H192V143H204V155ZM208 155H220V143H208V155ZM236 155H224V143H236V155ZM240 155H252V143H240V155ZM128 139H140V127H128V139ZM156 139H144V127H156V139ZM160 139H172V127H160V139ZM188 139H176V127H188V139ZM192 139H204V127H192V139ZM220 139H208V127H220V139ZM224 139H236V127H224V139ZM252 139H240V127H252V139ZM140 123H128V111H140V123ZM144 123H156V111H144V123ZM172 123H160V111H172V123ZM176 123H188V111H176V123ZM204 123H192V111H204V123ZM208 123H220V111H208V123ZM236 123H224V111H236V123ZM240 123H252V111H240V123ZM144 107H156V95H144V107ZM172 107H160V95H172V107ZM176 107H188V95H176V107ZM204 107H192V95H204V107ZM208 107H220V95H208V107ZM236 107H224V95H236V107Z"/>
</mask>
<path fill-rule="evenodd" clip-rule="evenodd" d="M140 107H128V95H140V107ZM112 123H124V111H112V123ZM124 139H112V127H124V139ZM112 155H124V143H112V155ZM124 171H112V159H124V171ZM112 187H124V175H112V187ZM124 203H112V191H124V203ZM112 219H124V207H112V219ZM124 235H112V223H124V235ZM112 251H124V239H112V251ZM124 267H112V255H124V267ZM112 283H124V271H112V283ZM124 299H112V287H124V299ZM112 315H124V303H112V315ZM112 331H124V319H112V331ZM124 347H112V335H124V347ZM124 363H112V351H124V363ZM128 379H140V367H128V379ZM144 379H156V367H144V379ZM112 379H124V367H112V379ZM140 363H128V351H140V363ZM144 363H156V351H144V363ZM128 347H140V335H128V347ZM156 347H144V335H156V347ZM140 331H128V319H140V331ZM144 331H156V319H144V331ZM172 331H160V319H172V331ZM176 331H188V319H176V331ZM204 331H192V319H204V331ZM208 331H220V319H208V331ZM236 331H224V319H236V331ZM140 315H128V303H140V315ZM144 315H156V303H144V315ZM172 315H160V303H172V315ZM176 315H188V303H176V315ZM204 315H192V303H204V315ZM208 315H220V303H208V315ZM236 315H224V303H236V315ZM240 315H252V303H240V315ZM128 299H140V287H128V299ZM156 299H144V287H156V299ZM160 299H172V287H160V299ZM188 299H176V287H188V299ZM192 299H204V287H192V299ZM220 299H208V287H220V299ZM224 299H236V287H224V299ZM252 299H240V287H252V299ZM140 283H128V271H140V283ZM144 283H156V271H144V283ZM172 283H160V271H172V283ZM176 283H188V271H176V283ZM204 283H192V271H204V283ZM208 283H220V271H208V283ZM236 283H224V271H236V283ZM240 283H252V271H240V283ZM128 267H140V255H128V267ZM156 267H144V255H156V267ZM160 267H172V255H160V267ZM188 267H176V255H188V267ZM192 267H204V255H192V267ZM220 267H208V255H220V267ZM224 267H236V255H224V267ZM252 267H240V255H252V267ZM140 251H128V239H140V251ZM144 251H156V239H144V251ZM172 251H160V239H172V251ZM176 251H188V239H176V251ZM204 251H192V239H204V251ZM208 251H220V239H208V251ZM236 251H224V239H236V251ZM240 251H252V239H240V251ZM128 235H140V223H128V235ZM156 235H144V223H156V235ZM160 235H172V223H160V235ZM188 235H176V223H188V235ZM192 235H204V223H192V235ZM220 235H208V223H220V235ZM224 235H236V223H224V235ZM252 235H240V223H252V235ZM140 219H128V207H140V219ZM144 219H156V207H144V219ZM172 219H160V207H172V219ZM176 219H188V207H176V219ZM204 219H192V207H204V219ZM208 219H220V207H208V219ZM236 219H224V207H236V219ZM240 219H252V207H240V219ZM128 203H140V191H128V203ZM156 203H144V191H156V203ZM160 203H172V191H160V203ZM188 203H176V191H188V203ZM192 203H204V191H192V203ZM220 203H208V191H220V203ZM224 203H236V191H224V203ZM252 203H240V191H252V203ZM140 187H128V175H140V187ZM144 187H156V175H144V187ZM172 187H160V175H172V187ZM176 187H188V175H176V187ZM204 187H192V175H204V187ZM208 187H220V175H208V187ZM236 187H224V175H236V187ZM240 187H252V175H240V187ZM128 171H140V159H128V171ZM156 171H144V159H156V171ZM160 171H172V159H160V171ZM188 171H176V159H188V171ZM192 171H204V159H192V171ZM220 171H208V159H220V171ZM224 171H236V159H224V171ZM252 171H240V159H252V171ZM140 155H128V143H140V155ZM144 155H156V143H144V155ZM172 155H160V143H172V155ZM176 155H188V143H176V155ZM204 155H192V143H204V155ZM208 155H220V143H208V155ZM236 155H224V143H236V155ZM240 155H252V143H240V155ZM128 139H140V127H128V139ZM156 139H144V127H156V139ZM160 139H172V127H160V139ZM188 139H176V127H188V139ZM192 139H204V127H192V139ZM220 139H208V127H220V139ZM224 139H236V127H224V139ZM252 139H240V127H252V139ZM140 123H128V111H140V123ZM144 123H156V111H144V123ZM172 123H160V111H172V123ZM176 123H188V111H176V123ZM204 123H192V111H204V123ZM208 123H220V111H208V123ZM236 123H224V111H236V123ZM240 123H252V111H240V123ZM144 107H156V95H144V107ZM172 107H160V95H172V107ZM176 107H188V95H176V107ZM204 107H192V95H204V107ZM208 107H220V95H208V107ZM236 107H224V95H236V107Z" fill="black"/>
<path d="M128 107H125V110H128V107ZM140 107V110H143V107H140ZM128 95V92H125V95H128ZM140 95H143V92H140V95ZM124 123V126H127V123H124ZM112 123H109V126H112V123ZM124 111H127V108H124V111ZM112 111V108H109V111H112ZM112 139H109V142H112V139ZM124 139V142H127V139H124ZM112 127V124H109V127H112ZM124 127H127V124H124V127ZM124 155V158H127V155H124ZM112 155H109V158H112V155ZM124 143H127V140H124V143ZM112 143V140H109V143H112ZM112 171H109V174H112V171ZM124 171V174H127V171H124ZM112 159V156H109V159H112ZM124 159H127V156H124V159ZM124 187V190H127V187H124ZM112 187H109V190H112V187ZM124 175H127V172H124V175ZM112 175V172H109V175H112ZM112 203H109V206H112V203ZM124 203V206H127V203H124ZM112 191V188H109V191H112ZM124 191H127V188H124V191ZM124 219V222H127V219H124ZM112 219H109V222H112V219ZM124 207H127V204H124V207ZM112 207V204H109V207H112ZM112 235H109V238H112V235ZM124 235V238H127V235H124ZM112 223V220H109V223H112ZM124 223H127V220H124V223ZM124 251V254H127V251H124ZM112 251H109V254H112V251ZM124 239H127V236H124V239ZM112 239V236H109V239H112ZM112 267H109V270H112V267ZM124 267V270H127V267H124ZM112 255V252H109V255H112ZM124 255H127V252H124V255ZM124 283V286H127V283H124ZM112 283H109V286H112V283ZM124 271H127V268H124V271ZM112 271V268H109V271H112ZM112 299H109V302H112V299ZM124 299V302H127V299H124ZM112 287V284H109V287H112ZM124 287H127V284H124V287ZM124 315V318H127V315H124ZM112 315H109V318H112V315ZM124 303H127V300H124V303ZM112 303V300H109V303H112ZM124 331V334H127V331H124ZM112 331H109V334H112V331ZM124 319H127V316H124V319ZM112 319V316H109V319H112ZM112 347H109V350H112V347ZM124 347V350H127V347H124ZM112 335V332H109V335H112ZM124 335H127V332H124V335ZM112 363H109V366H112V363ZM124 363V366H127V363H124ZM112 351V348H109V351H112ZM124 351H127V348H124V351ZM140 379V382H143V379H140ZM128 379H125V382H128V379ZM140 367H143V364H140V367ZM128 367V364H125V367H128ZM156 379V382H159V379H156ZM144 379H141V382H144V379ZM156 367H159V364H156V367ZM144 367V364H141V367H144ZM124 379V382H127V379H124ZM112 379H109V382H112V379ZM124 367H127V364H124V367ZM112 367V364H109V367H112ZM128 363H125V366H128V363ZM140 363V366H143V363H140ZM128 351V348H125V351H128ZM140 351H143V348H140V351ZM156 363V366H159V363H156ZM144 363H141V366H144V363ZM156 351H159V348H156V351ZM144 351V348H141V351H144ZM140 347V350H143V347H140ZM128 347H125V350H128V347ZM140 335H143V332H140V335ZM128 335V332H125V335H128ZM144 347H141V350H144V347ZM156 347V350H159V347H156ZM144 335V332H141V335H144ZM156 335H159V332H156V335ZM128 331H125V334H128V331ZM140 331V334H143V331H140ZM128 319V316H125V319H128ZM140 319H143V316H140V319ZM156 331V334H159V331H156ZM144 331H141V334H144V331ZM156 319H159V316H156V319ZM144 319V316H141V319H144ZM160 331H157V334H160V331ZM172 331V334H175V331H172ZM160 319V316H157V319H160ZM172 319H175V316H172V319ZM188 331V334H191V331H188ZM176 331H173V334H176V331ZM188 319H191V316H188V319ZM176 319V316H173V319H176ZM192 331H189V334H192V331ZM204 331V334H207V331H204ZM192 319V316H189V319H192ZM204 319H207V316H204V319ZM220 331V334H223V331H220ZM208 331H205V334H208V331ZM220 319H223V316H220V319ZM208 319V316H205V319H208ZM224 331H221V334H224V331ZM236 331V334H239V331H236ZM224 319V316H221V319H224ZM236 319H239V316H236V319ZM128 315H125V318H128V315ZM140 315V318H143V315H140ZM128 303V300H125V303H128ZM140 303H143V300H140V303ZM156 315V318H159V315H156ZM144 315H141V318H144V315ZM156 303H159V300H156V303ZM144 303V300H141V303H144ZM160 315H157V318H160V315ZM172 315V318H175V315H172ZM160 303V300H157V303H160ZM172 303H175V300H172V303ZM188 315V318H191V315H188ZM176 315H173V318H176V315ZM188 303H191V300H188V303ZM176 303V300H173V303H176ZM192 315H189V318H192V315ZM204 315V318H207V315H204ZM192 303V300H189V303H192ZM204 303H207V300H204V303ZM220 315V318H223V315H220ZM208 315H205V318H208V315ZM220 303H223V300H220V303ZM208 303V300H205V303H208ZM224 315H221V318H224V315ZM236 315V318H239V315H236ZM224 303V300H221V303H224ZM236 303H239V300H236V303ZM252 315V318H255V315H252ZM240 315H237V318H240V315ZM252 303H255V300H252V303ZM240 303V300H237V303H240ZM140 299V302H143V299H140ZM128 299H125V302H128V299ZM140 287H143V284H140V287ZM128 287V284H125V287H128ZM144 299H141V302H144V299ZM156 299V302H159V299H156ZM144 287V284H141V287H144ZM156 287H159V284H156V287ZM172 299V302H175V299H172ZM160 299H157V302H160V299ZM172 287H175V284H172V287ZM160 287V284H157V287H160ZM176 299H173V302H176V299ZM188 299V302H191V299H188ZM176 287V284H173V287H176ZM188 287H191V284H188V287ZM204 299V302H207V299H204ZM192 299H189V302H192V299ZM204 287H207V284H204V287ZM192 287V284H189V287H192ZM208 299H205V302H208V299ZM220 299V302H223V299H220ZM208 287V284H205V287H208ZM220 287H223V284H220V287ZM236 299V302H239V299H236ZM224 299H221V302H224V299ZM236 287H239V284H236V287ZM224 287V284H221V287H224ZM240 299H237V302H240V299ZM252 299V302H255V299H252ZM240 287V284H237V287H240ZM252 287H255V284H252V287ZM128 283H125V286H128V283ZM140 283V286H143V283H140ZM128 271V268H125V271H128ZM140 271H143V268H140V271ZM156 283V286H159V283H156ZM144 283H141V286H144V283ZM156 271H159V268H156V271ZM144 271V268H141V271H144ZM160 283H157V286H160V283ZM172 283V286H175V283H172ZM160 271V268H157V271H160ZM172 271H175V268H172V271ZM188 283V286H191V283H188ZM176 283H173V286H176V283ZM188 271H191V268H188V271ZM176 271V268H173V271H176ZM192 283H189V286H192V283ZM204 283V286H207V283H204ZM192 271V268H189V271H192ZM204 271H207V268H204V271ZM220 283V286H223V283H220ZM208 283H205V286H208V283ZM220 271H223V268H220V271ZM208 271V268H205V271H208ZM224 283H221V286H224V283ZM236 283V286H239V283H236ZM224 271V268H221V271H224ZM236 271H239V268H236V271ZM252 283V286H255V283H252ZM240 283H237V286H240V283ZM252 271H255V268H252V271ZM240 271V268H237V271H240ZM140 267V270H143V267H140ZM128 267H125V270H128V267ZM140 255H143V252H140V255ZM128 255V252H125V255H128ZM144 267H141V270H144V267ZM156 267V270H159V267H156ZM144 255V252H141V255H144ZM156 255H159V252H156V255ZM172 267V270H175V267H172ZM160 267H157V270H160V267ZM172 255H175V252H172V255ZM160 255V252H157V255H160ZM176 267H173V270H176V267ZM188 267V270H191V267H188ZM176 255V252H173V255H176ZM188 255H191V252H188V255ZM204 267V270H207V267H204ZM192 267H189V270H192V267ZM204 255H207V252H204V255ZM192 255V252H189V255H192ZM208 267H205V270H208V267ZM220 267V270H223V267H220ZM208 255V252H205V255H208ZM220 255H223V252H220V255ZM236 267V270H239V267H236ZM224 267H221V270H224V267ZM236 255H239V252H236V255ZM224 255V252H221V255H224ZM240 267H237V270H240V267ZM252 267V270H255V267H252ZM240 255V252H237V255H240ZM252 255H255V252H252V255ZM128 251H125V254H128V251ZM140 251V254H143V251H140ZM128 239V236H125V239H128ZM140 239H143V236H140V239ZM156 251V254H159V251H156ZM144 251H141V254H144V251ZM156 239H159V236H156V239ZM144 239V236H141V239H144ZM160 251H157V254H160V251ZM172 251V254H175V251H172ZM160 239V236H157V239H160ZM172 239H175V236H172V239ZM188 251V254H191V251H188ZM176 251H173V254H176V251ZM188 239H191V236H188V239ZM176 239V236H173V239H176ZM192 251H189V254H192V251ZM204 251V254H207V251H204ZM192 239V236H189V239H192ZM204 239H207V236H204V239ZM220 251V254H223V251H220ZM208 251H205V254H208V251ZM220 239H223V236H220V239ZM208 239V236H205V239H208ZM224 251H221V254H224V251ZM236 251V254H239V251H236ZM224 239V236H221V239H224ZM236 239H239V236H236V239ZM252 251V254H255V251H252ZM240 251H237V254H240V251ZM252 239H255V236H252V239ZM240 239V236H237V239H240ZM140 235V238H143V235H140ZM128 235H125V238H128V235ZM140 223H143V220H140V223ZM128 223V220H125V223H128ZM144 235H141V238H144V235ZM156 235V238H159V235H156ZM144 223V220H141V223H144ZM156 223H159V220H156V223ZM172 235V238H175V235H172ZM160 235H157V238H160V235ZM172 223H175V220H172V223ZM160 223V220H157V223H160ZM176 235H173V238H176V235ZM188 235V238H191V235H188ZM176 223V220H173V223H176ZM188 223H191V220H188V223ZM204 235V238H207V235H204ZM192 235H189V238H192V235ZM204 223H207V220H204V223ZM192 223V220H189V223H192ZM208 235H205V238H208V235ZM220 235V238H223V235H220ZM208 223V220H205V223H208ZM220 223H223V220H220V223ZM236 235V238H239V235H236ZM224 235H221V238H224V235ZM236 223H239V220H236V223ZM224 223V220H221V223H224ZM240 235H237V238H240V235ZM252 235V238H255V235H252ZM240 223V220H237V223H240ZM252 223H255V220H252V223ZM128 219H125V222H128V219ZM140 219V222H143V219H140ZM128 207V204H125V207H128ZM140 207H143V204H140V207ZM156 219V222H159V219H156ZM144 219H141V222H144V219ZM156 207H159V204H156V207ZM144 207V204H141V207H144ZM160 219H157V222H160V219ZM172 219V222H175V219H172ZM160 207V204H157V207H160ZM172 207H175V204H172V207ZM188 219V222H191V219H188ZM176 219H173V222H176V219ZM188 207H191V204H188V207ZM176 207V204H173V207H176ZM192 219H189V222H192V219ZM204 219V222H207V219H204ZM192 207V204H189V207H192ZM204 207H207V204H204V207ZM220 219V222H223V219H220ZM208 219H205V222H208V219ZM220 207H223V204H220V207ZM208 207V204H205V207H208ZM224 219H221V222H224V219ZM236 219V222H239V219H236ZM224 207V204H221V207H224ZM236 207H239V204H236V207ZM252 219V222H255V219H252ZM240 219H237V222H240V219ZM252 207H255V204H252V207ZM240 207V204H237V207H240ZM140 203V206H143V203H140ZM128 203H125V206H128V203ZM140 191H143V188H140V191ZM128 191V188H125V191H128ZM144 203H141V206H144V203ZM156 203V206H159V203H156ZM144 191V188H141V191H144ZM156 191H159V188H156V191ZM172 203V206H175V203H172ZM160 203H157V206H160V203ZM172 191H175V188H172V191ZM160 191V188H157V191H160ZM176 203H173V206H176V203ZM188 203V206H191V203H188ZM176 191V188H173V191H176ZM188 191H191V188H188V191ZM204 203V206H207V203H204ZM192 203H189V206H192V203ZM204 191H207V188H204V191ZM192 191V188H189V191H192ZM208 203H205V206H208V203ZM220 203V206H223V203H220ZM208 191V188H205V191H208ZM220 191H223V188H220V191ZM236 203V206H239V203H236ZM224 203H221V206H224V203ZM236 191H239V188H236V191ZM224 191V188H221V191H224ZM240 203H237V206H240V203ZM252 203V206H255V203H252ZM240 191V188H237V191H240ZM252 191H255V188H252V191ZM128 187H125V190H128V187ZM140 187V190H143V187H140ZM128 175V172H125V175H128ZM140 175H143V172H140V175ZM156 187V190H159V187H156ZM144 187H141V190H144V187ZM156 175H159V172H156V175ZM144 175V172H141V175H144ZM160 187H157V190H160V187ZM172 187V190H175V187H172ZM160 175V172H157V175H160ZM172 175H175V172H172V175ZM188 187V190H191V187H188ZM176 187H173V190H176V187ZM188 175H191V172H188V175ZM176 175V172H173V175H176ZM192 187H189V190H192V187ZM204 187V190H207V187H204ZM192 175V172H189V175H192ZM204 175H207V172H204V175ZM220 187V190H223V187H220ZM208 187H205V190H208V187ZM220 175H223V172H220V175ZM208 175V172H205V175H208ZM224 187H221V190H224V187ZM236 187V190H239V187H236ZM224 175V172H221V175H224ZM236 175H239V172H236V175ZM252 187V190H255V187H252ZM240 187H237V190H240V187ZM252 175H255V172H252V175ZM240 175V172H237V175H240ZM140 171V174H143V171H140ZM128 171H125V174H128V171ZM140 159H143V156H140V159ZM128 159V156H125V159H128ZM144 171H141V174H144V171ZM156 171V174H159V171H156ZM144 159V156H141V159H144ZM156 159H159V156H156V159ZM172 171V174H175V171H172ZM160 171H157V174H160V171ZM172 159H175V156H172V159ZM160 159V156H157V159H160ZM176 171H173V174H176V171ZM188 171V174H191V171H188ZM176 159V156H173V159H176ZM188 159H191V156H188V159ZM204 171V174H207V171H204ZM192 171H189V174H192V171ZM204 159H207V156H204V159ZM192 159V156H189V159H192ZM208 171H205V174H208V171ZM220 171V174H223V171H220ZM208 159V156H205V159H208ZM220 159H223V156H220V159ZM236 171V174H239V171H236ZM224 171H221V174H224V171ZM236 159H239V156H236V159ZM224 159V156H221V159H224ZM240 171H237V174H240V171ZM252 171V174H255V171H252ZM240 159V156H237V159H240ZM252 159H255V156H252V159ZM128 155H125V158H128V155ZM140 155V158H143V155H140ZM128 143V140H125V143H128ZM140 143H143V140H140V143ZM156 155V158H159V155H156ZM144 155H141V158H144V155ZM156 143H159V140H156V143ZM144 143V140H141V143H144ZM160 155H157V158H160V155ZM172 155V158H175V155H172ZM160 143V140H157V143H160ZM172 143H175V140H172V143ZM188 155V158H191V155H188ZM176 155H173V158H176V155ZM188 143H191V140H188V143ZM176 143V140H173V143H176ZM192 155H189V158H192V155ZM204 155V158H207V155H204ZM192 143V140H189V143H192ZM204 143H207V140H204V143ZM220 155V158H223V155H220ZM208 155H205V158H208V155ZM220 143H223V140H220V143ZM208 143V140H205V143H208ZM224 155H221V158H224V155ZM236 155V158H239V155H236ZM224 143V140H221V143H224ZM236 143H239V140H236V143ZM252 155V158H255V155H252ZM240 155H237V158H240V155ZM252 143H255V140H252V143ZM240 143V140H237V143H240ZM140 139V142H143V139H140ZM128 139H125V142H128V139ZM140 127H143V124H140V127ZM128 127V124H125V127H128ZM144 139H141V142H144V139ZM156 139V142H159V139H156ZM144 127V124H141V127H144ZM156 127H159V124H156V127ZM172 139V142H175V139H172ZM160 139H157V142H160V139ZM172 127H175V124H172V127ZM160 127V124H157V127H160ZM176 139H173V142H176V139ZM188 139V142H191V139H188ZM176 127V124H173V127H176ZM188 127H191V124H188V127ZM204 139V142H207V139H204ZM192 139H189V142H192V139ZM204 127H207V124H204V127ZM192 127V124H189V127H192ZM208 139H205V142H208V139ZM220 139V142H223V139H220ZM208 127V124H205V127H208ZM220 127H223V124H220V127ZM236 139V142H239V139H236ZM224 139H221V142H224V139ZM236 127H239V124H236V127ZM224 127V124H221V127H224ZM240 139H237V142H240V139ZM252 139V142H255V139H252ZM240 127V124H237V127H240ZM252 127H255V124H252V127ZM128 123H125V126H128V123ZM140 123V126H143V123H140ZM128 111V108H125V111H128ZM140 111H143V108H140V111ZM156 123V126H159V123H156ZM144 123H141V126H144V123ZM156 111H159V108H156V111ZM144 111V108H141V111H144ZM160 123H157V126H160V123ZM172 123V126H175V123H172ZM160 111V108H157V111H160ZM172 111H175V108H172V111ZM188 123V126H191V123H188ZM176 123H173V126H176V123ZM188 111H191V108H188V111ZM176 111V108H173V111H176ZM192 123H189V126H192V123ZM204 123V126H207V123H204ZM192 111V108H189V111H192ZM204 111H207V108H204V111ZM220 123V126H223V123H220ZM208 123H205V126H208V123ZM220 111H223V108H220V111ZM208 111V108H205V111H208ZM224 123H221V126H224V123ZM236 123V126H239V123H236ZM224 111V108H221V111H224ZM236 111H239V108H236V111ZM252 123V126H255V123H252ZM240 123H237V126H240V123ZM252 111H255V108H252V111ZM240 111V108H237V111H240ZM156 107V110H159V107H156ZM144 107H141V110H144V107ZM156 95H159V92H156V95ZM144 95V92H141V95H144ZM160 107H157V110H160V107ZM172 107V110H175V107H172ZM160 95V92H157V95H160ZM172 95H175V92H172V95ZM188 107V110H191V107H188ZM176 107H173V110H176V107ZM188 95H191V92H188V95ZM176 95V92H173V95H176ZM192 107H189V110H192V107ZM204 107V110H207V107H204ZM192 95V92H189V95H192ZM204 95H207V92H204V95ZM220 107V110H223V107H220ZM208 107H205V110H208V107ZM220 95H223V92H220V95ZM208 95V92H205V95H208ZM224 107H221V110H224V107ZM236 107V110H239V107H236ZM224 95V92H221V95H224ZM236 95H239V92H236V95ZM128 110H140V104H128V110ZM125 95V107H131V95H125ZM140 92H128V98H140V92ZM143 107V95H137V107H143ZM124 120H112V126H124V120ZM121 111V123H127V111H121ZM112 114H124V108H112V114ZM115 123V111H109V123H115ZM112 142H124V136H112V142ZM109 127V139H115V127H109ZM124 124H112V130H124V124ZM127 139V127H121V139H127ZM124 152H112V158H124V152ZM121 143V155H127V143H121ZM112 146H124V140H112V146ZM115 155V143H109V155H115ZM112 174H124V168H112V174ZM109 159V171H115V159H109ZM124 156H112V162H124V156ZM127 171V159H121V171H127ZM124 184H112V190H124V184ZM121 175V187H127V175H121ZM112 178H124V172H112V178ZM115 187V175H109V187H115ZM112 206H124V200H112V206ZM109 191V203H115V191H109ZM124 188H112V194H124V188ZM127 203V191H121V203H127ZM124 216H112V222H124V216ZM121 207V219H127V207H121ZM112 210H124V204H112V210ZM115 219V207H109V219H115ZM112 238H124V232H112V238ZM109 223V235H115V223H109ZM124 220H112V226H124V220ZM127 235V223H121V235H127ZM124 248H112V254H124V248ZM121 239V251H127V239H121ZM112 242H124V236H112V242ZM115 251V239H109V251H115ZM112 270H124V264H112V270ZM109 255V267H115V255H109ZM124 252H112V258H124V252ZM127 267V255H121V267H127ZM124 280H112V286H124V280ZM121 271V283H127V271H121ZM112 274H124V268H112V274ZM115 283V271H109V283H115ZM112 302H124V296H112V302ZM109 287V299H115V287H109ZM124 284H112V290H124V284ZM127 299V287H121V299H127ZM124 312H112V318H124V312ZM121 303V315H127V303H121ZM112 306H124V300H112V306ZM115 315V303H109V315H115ZM124 328H112V334H124V328ZM121 319V331H127V319H121ZM112 322H124V316H112V322ZM115 331V319H109V331H115ZM112 350H124V344H112V350ZM109 335V347H115V335H109ZM124 332H112V338H124V332ZM127 347V335H121V347H127ZM112 366H124V360H112V366ZM109 351V363H115V351H109ZM124 348H112V354H124V348ZM127 363V351H121V363H127ZM140 376H128V382H140V376ZM137 367V379H143V367H137ZM128 370H140V364H128V370ZM131 379V367H125V379H131ZM156 376H144V382H156V376ZM153 367V379H159V367H153ZM144 370H156V364H144V370ZM147 379V367H141V379H147ZM124 376H112V382H124V376ZM121 367V379H127V367H121ZM112 370H124V364H112V370ZM115 379V367H109V379H115ZM128 366H140V360H128V366ZM125 351V363H131V351H125ZM140 348H128V354H140V348ZM143 363V351H137V363H143ZM156 360H144V366H156V360ZM153 351V363H159V351H153ZM144 354H156V348H144V354ZM147 363V351H141V363H147ZM140 344H128V350H140V344ZM137 335V347H143V335H137ZM128 338H140V332H128V338ZM131 347V335H125V347H131ZM144 350H156V344H144V350ZM141 335V347H147V335H141ZM156 332H144V338H156V332ZM159 347V335H153V347H159ZM128 334H140V328H128V334ZM125 319V331H131V319H125ZM140 316H128V322H140V316ZM143 331V319H137V331H143ZM156 328H144V334H156V328ZM153 319V331H159V319H153ZM144 322H156V316H144V322ZM147 331V319H141V331H147ZM160 334H172V328H160V334ZM157 319V331H163V319H157ZM172 316H160V322H172V316ZM175 331V319H169V331H175ZM188 328H176V334H188V328ZM185 319V331H191V319H185ZM176 322H188V316H176V322ZM179 331V319H173V331H179ZM192 334H204V328H192V334ZM189 319V331H195V319H189ZM204 316H192V322H204V316ZM207 331V319H201V331H207ZM220 328H208V334H220V328ZM217 319V331H223V319H217ZM208 322H220V316H208V322ZM211 331V319H205V331H211ZM224 334H236V328H224V334ZM221 319V331H227V319H221ZM236 316H224V322H236V316ZM239 331V319H233V331H239ZM128 318H140V312H128V318ZM125 303V315H131V303H125ZM140 300H128V306H140V300ZM143 315V303H137V315H143ZM156 312H144V318H156V312ZM153 303V315H159V303H153ZM144 306H156V300H144V306ZM147 315V303H141V315H147ZM160 318H172V312H160V318ZM157 303V315H163V303H157ZM172 300H160V306H172V300ZM175 315V303H169V315H175ZM188 312H176V318H188V312ZM185 303V315H191V303H185ZM176 306H188V300H176V306ZM179 315V303H173V315H179ZM192 318H204V312H192V318ZM189 303V315H195V303H189ZM204 300H192V306H204V300ZM207 315V303H201V315H207ZM220 312H208V318H220V312ZM217 303V315H223V303H217ZM208 306H220V300H208V306ZM211 315V303H205V315H211ZM224 318H236V312H224V318ZM221 303V315H227V303H221ZM236 300H224V306H236V300ZM239 315V303H233V315H239ZM252 312H240V318H252V312ZM249 303V315H255V303H249ZM240 306H252V300H240V306ZM243 315V303H237V315H243ZM140 296H128V302H140V296ZM137 287V299H143V287H137ZM128 290H140V284H128V290ZM131 299V287H125V299H131ZM144 302H156V296H144V302ZM141 287V299H147V287H141ZM156 284H144V290H156V284ZM159 299V287H153V299H159ZM172 296H160V302H172V296ZM169 287V299H175V287H169ZM160 290H172V284H160V290ZM163 299V287H157V299H163ZM176 302H188V296H176V302ZM173 287V299H179V287H173ZM188 284H176V290H188V284ZM191 299V287H185V299H191ZM204 296H192V302H204V296ZM201 287V299H207V287H201ZM192 290H204V284H192V290ZM195 299V287H189V299H195ZM208 302H220V296H208V302ZM205 287V299H211V287H205ZM220 284H208V290H220V284ZM223 299V287H217V299H223ZM236 296H224V302H236V296ZM233 287V299H239V287H233ZM224 290H236V284H224V290ZM227 299V287H221V299H227ZM240 302H252V296H240V302ZM237 287V299H243V287H237ZM252 284H240V290H252V284ZM255 299V287H249V299H255ZM128 286H140V280H128V286ZM125 271V283H131V271H125ZM140 268H128V274H140V268ZM143 283V271H137V283H143ZM156 280H144V286H156V280ZM153 271V283H159V271H153ZM144 274H156V268H144V274ZM147 283V271H141V283H147ZM160 286H172V280H160V286ZM157 271V283H163V271H157ZM172 268H160V274H172V268ZM175 283V271H169V283H175ZM188 280H176V286H188V280ZM185 271V283H191V271H185ZM176 274H188V268H176V274ZM179 283V271H173V283H179ZM192 286H204V280H192V286ZM189 271V283H195V271H189ZM204 268H192V274H204V268ZM207 283V271H201V283H207ZM220 280H208V286H220V280ZM217 271V283H223V271H217ZM208 274H220V268H208V274ZM211 283V271H205V283H211ZM224 286H236V280H224V286ZM221 271V283H227V271H221ZM236 268H224V274H236V268ZM239 283V271H233V283H239ZM252 280H240V286H252V280ZM249 271V283H255V271H249ZM240 274H252V268H240V274ZM243 283V271H237V283H243ZM140 264H128V270H140V264ZM137 255V267H143V255H137ZM128 258H140V252H128V258ZM131 267V255H125V267H131ZM144 270H156V264H144V270ZM141 255V267H147V255H141ZM156 252H144V258H156V252ZM159 267V255H153V267H159ZM172 264H160V270H172V264ZM169 255V267H175V255H169ZM160 258H172V252H160V258ZM163 267V255H157V267H163ZM176 270H188V264H176V270ZM173 255V267H179V255H173ZM188 252H176V258H188V252ZM191 267V255H185V267H191ZM204 264H192V270H204V264ZM201 255V267H207V255H201ZM192 258H204V252H192V258ZM195 267V255H189V267H195ZM208 270H220V264H208V270ZM205 255V267H211V255H205ZM220 252H208V258H220V252ZM223 267V255H217V267H223ZM236 264H224V270H236V264ZM233 255V267H239V255H233ZM224 258H236V252H224V258ZM227 267V255H221V267H227ZM240 270H252V264H240V270ZM237 255V267H243V255H237ZM252 252H240V258H252V252ZM255 267V255H249V267H255ZM128 254H140V248H128V254ZM125 239V251H131V239H125ZM140 236H128V242H140V236ZM143 251V239H137V251H143ZM156 248H144V254H156V248ZM153 239V251H159V239H153ZM144 242H156V236H144V242ZM147 251V239H141V251H147ZM160 254H172V248H160V254ZM157 239V251H163V239H157ZM172 236H160V242H172V236ZM175 251V239H169V251H175ZM188 248H176V254H188V248ZM185 239V251H191V239H185ZM176 242H188V236H176V242ZM179 251V239H173V251H179ZM192 254H204V248H192V254ZM189 239V251H195V239H189ZM204 236H192V242H204V236ZM207 251V239H201V251H207ZM220 248H208V254H220V248ZM217 239V251H223V239H217ZM208 242H220V236H208V242ZM211 251V239H205V251H211ZM224 254H236V248H224V254ZM221 239V251H227V239H221ZM236 236H224V242H236V236ZM239 251V239H233V251H239ZM252 248H240V254H252V248ZM249 239V251H255V239H249ZM240 242H252V236H240V242ZM243 251V239H237V251H243ZM140 232H128V238H140V232ZM137 223V235H143V223H137ZM128 226H140V220H128V226ZM131 235V223H125V235H131ZM144 238H156V232H144V238ZM141 223V235H147V223H141ZM156 220H144V226H156V220ZM159 235V223H153V235H159ZM172 232H160V238H172V232ZM169 223V235H175V223H169ZM160 226H172V220H160V226ZM163 235V223H157V235H163ZM176 238H188V232H176V238ZM173 223V235H179V223H173ZM188 220H176V226H188V220ZM191 235V223H185V235H191ZM204 232H192V238H204V232ZM201 223V235H207V223H201ZM192 226H204V220H192V226ZM195 235V223H189V235H195ZM208 238H220V232H208V238ZM205 223V235H211V223H205ZM220 220H208V226H220V220ZM223 235V223H217V235H223ZM236 232H224V238H236V232ZM233 223V235H239V223H233ZM224 226H236V220H224V226ZM227 235V223H221V235H227ZM240 238H252V232H240V238ZM237 223V235H243V223H237ZM252 220H240V226H252V220ZM255 235V223H249V235H255ZM128 222H140V216H128V222ZM125 207V219H131V207H125ZM140 204H128V210H140V204ZM143 219V207H137V219H143ZM156 216H144V222H156V216ZM153 207V219H159V207H153ZM144 210H156V204H144V210ZM147 219V207H141V219H147ZM160 222H172V216H160V222ZM157 207V219H163V207H157ZM172 204H160V210H172V204ZM175 219V207H169V219H175ZM188 216H176V222H188V216ZM185 207V219H191V207H185ZM176 210H188V204H176V210ZM179 219V207H173V219H179ZM192 222H204V216H192V222ZM189 207V219H195V207H189ZM204 204H192V210H204V204ZM207 219V207H201V219H207ZM220 216H208V222H220V216ZM217 207V219H223V207H217ZM208 210H220V204H208V210ZM211 219V207H205V219H211ZM224 222H236V216H224V222ZM221 207V219H227V207H221ZM236 204H224V210H236V204ZM239 219V207H233V219H239ZM252 216H240V222H252V216ZM249 207V219H255V207H249ZM240 210H252V204H240V210ZM243 219V207H237V219H243ZM140 200H128V206H140V200ZM137 191V203H143V191H137ZM128 194H140V188H128V194ZM131 203V191H125V203H131ZM144 206H156V200H144V206ZM141 191V203H147V191H141ZM156 188H144V194H156V188ZM159 203V191H153V203H159ZM172 200H160V206H172V200ZM169 191V203H175V191H169ZM160 194H172V188H160V194ZM163 203V191H157V203H163ZM176 206H188V200H176V206ZM173 191V203H179V191H173ZM188 188H176V194H188V188ZM191 203V191H185V203H191ZM204 200H192V206H204V200ZM201 191V203H207V191H201ZM192 194H204V188H192V194ZM195 203V191H189V203H195ZM208 206H220V200H208V206ZM205 191V203H211V191H205ZM220 188H208V194H220V188ZM223 203V191H217V203H223ZM236 200H224V206H236V200ZM233 191V203H239V191H233ZM224 194H236V188H224V194ZM227 203V191H221V203H227ZM240 206H252V200H240V206ZM237 191V203H243V191H237ZM252 188H240V194H252V188ZM255 203V191H249V203H255ZM128 190H140V184H128V190ZM125 175V187H131V175H125ZM140 172H128V178H140V172ZM143 187V175H137V187H143ZM156 184H144V190H156V184ZM153 175V187H159V175H153ZM144 178H156V172H144V178ZM147 187V175H141V187H147ZM160 190H172V184H160V190ZM157 175V187H163V175H157ZM172 172H160V178H172V172ZM175 187V175H169V187H175ZM188 184H176V190H188V184ZM185 175V187H191V175H185ZM176 178H188V172H176V178ZM179 187V175H173V187H179ZM192 190H204V184H192V190ZM189 175V187H195V175H189ZM204 172H192V178H204V172ZM207 187V175H201V187H207ZM220 184H208V190H220V184ZM217 175V187H223V175H217ZM208 178H220V172H208V178ZM211 187V175H205V187H211ZM224 190H236V184H224V190ZM221 175V187H227V175H221ZM236 172H224V178H236V172ZM239 187V175H233V187H239ZM252 184H240V190H252V184ZM249 175V187H255V175H249ZM240 178H252V172H240V178ZM243 187V175H237V187H243ZM140 168H128V174H140V168ZM137 159V171H143V159H137ZM128 162H140V156H128V162ZM131 171V159H125V171H131ZM144 174H156V168H144V174ZM141 159V171H147V159H141ZM156 156H144V162H156V156ZM159 171V159H153V171H159ZM172 168H160V174H172V168ZM169 159V171H175V159H169ZM160 162H172V156H160V162ZM163 171V159H157V171H163ZM176 174H188V168H176V174ZM173 159V171H179V159H173ZM188 156H176V162H188V156ZM191 171V159H185V171H191ZM204 168H192V174H204V168ZM201 159V171H207V159H201ZM192 162H204V156H192V162ZM195 171V159H189V171H195ZM208 174H220V168H208V174ZM205 159V171H211V159H205ZM220 156H208V162H220V156ZM223 171V159H217V171H223ZM236 168H224V174H236V168ZM233 159V171H239V159H233ZM224 162H236V156H224V162ZM227 171V159H221V171H227ZM240 174H252V168H240V174ZM237 159V171H243V159H237ZM252 156H240V162H252V156ZM255 171V159H249V171H255ZM128 158H140V152H128V158ZM125 143V155H131V143H125ZM140 140H128V146H140V140ZM143 155V143H137V155H143ZM156 152H144V158H156V152ZM153 143V155H159V143H153ZM144 146H156V140H144V146ZM147 155V143H141V155H147ZM160 158H172V152H160V158ZM157 143V155H163V143H157ZM172 140H160V146H172V140ZM175 155V143H169V155H175ZM188 152H176V158H188V152ZM185 143V155H191V143H185ZM176 146H188V140H176V146ZM179 155V143H173V155H179ZM192 158H204V152H192V158ZM189 143V155H195V143H189ZM204 140H192V146H204V140ZM207 155V143H201V155H207ZM220 152H208V158H220V152ZM217 143V155H223V143H217ZM208 146H220V140H208V146ZM211 155V143H205V155H211ZM224 158H236V152H224V158ZM221 143V155H227V143H221ZM236 140H224V146H236V140ZM239 155V143H233V155H239ZM252 152H240V158H252V152ZM249 143V155H255V143H249ZM240 146H252V140H240V146ZM243 155V143H237V155H243ZM140 136H128V142H140V136ZM137 127V139H143V127H137ZM128 130H140V124H128V130ZM131 139V127H125V139H131ZM144 142H156V136H144V142ZM141 127V139H147V127H141ZM156 124H144V130H156V124ZM159 139V127H153V139H159ZM172 136H160V142H172V136ZM169 127V139H175V127H169ZM160 130H172V124H160V130ZM163 139V127H157V139H163ZM176 142H188V136H176V142ZM173 127V139H179V127H173ZM188 124H176V130H188V124ZM191 139V127H185V139H191ZM204 136H192V142H204V136ZM201 127V139H207V127H201ZM192 130H204V124H192V130ZM195 139V127H189V139H195ZM208 142H220V136H208V142ZM205 127V139H211V127H205ZM220 124H208V130H220V124ZM223 139V127H217V139H223ZM236 136H224V142H236V136ZM233 127V139H239V127H233ZM224 130H236V124H224V130ZM227 139V127H221V139H227ZM240 142H252V136H240V142ZM237 127V139H243V127H237ZM252 124H240V130H252V124ZM255 139V127H249V139H255ZM128 126H140V120H128V126ZM125 111V123H131V111H125ZM140 108H128V114H140V108ZM143 123V111H137V123H143ZM156 120H144V126H156V120ZM153 111V123H159V111H153ZM144 114H156V108H144V114ZM147 123V111H141V123H147ZM160 126H172V120H160V126ZM157 111V123H163V111H157ZM172 108H160V114H172V108ZM175 123V111H169V123H175ZM188 120H176V126H188V120ZM185 111V123H191V111H185ZM176 114H188V108H176V114ZM179 123V111H173V123H179ZM192 126H204V120H192V126ZM189 111V123H195V111H189ZM204 108H192V114H204V108ZM207 123V111H201V123H207ZM220 120H208V126H220V120ZM217 111V123H223V111H217ZM208 114H220V108H208V114ZM211 123V111H205V123H211ZM224 126H236V120H224V126ZM221 111V123H227V111H221ZM236 108H224V114H236V108ZM239 123V111H233V123H239ZM252 120H240V126H252V120ZM249 111V123H255V111H249ZM240 114H252V108H240V114ZM243 123V111H237V123H243ZM156 104H144V110H156V104ZM153 95V107H159V95H153ZM144 98H156V92H144V98ZM147 107V95H141V107H147ZM160 110H172V104H160V110ZM157 95V107H163V95H157ZM172 92H160V98H172V92ZM175 107V95H169V107H175ZM188 104H176V110H188V104ZM185 95V107H191V95H185ZM176 98H188V92H176V98ZM179 107V95H173V107H179ZM192 110H204V104H192V110ZM189 95V107H195V95H189ZM204 92H192V98H204V92ZM207 107V95H201V107H207ZM220 104H208V110H220V104ZM217 95V107H223V95H217ZM208 98H220V92H208V98ZM211 107V95H205V107H211ZM224 110H236V104H224V110ZM221 95V107H227V95H221ZM236 92H224V98H236V92ZM239 107V95H233V107H239Z" fill="white" mask="url(#path-2-inside-1_315_3010)"/>
<mask id="path-4-inside-2_315_3010" fill="white">
<path fill-rule="evenodd" clip-rule="evenodd" d="M128 91H140V79H128V91ZM112 107H124V95H112V107ZM96 123H108V111H96V123ZM96 139H108V127H96V139ZM96 155H108V143H96V155ZM96 171H108V159H96V171ZM96 187H108V175H96V187ZM268 203H256V191H268V203ZM256 219H268V207H256V219ZM96 235H108V223H96V235ZM96 251H108V239H96V251ZM96 267H108V255H96V267ZM96 283H108V271H96V283ZM96 299H108V287H96V299ZM96 315H108V303H96V315ZM96 331H108V319H96V331ZM96 347H108V335H96V347ZM108 363H96V351H108V363ZM172 379H160V367H172V379ZM96 379H108V367H96V379ZM172 363H160V351H172V363ZM172 347H160V335H172V347ZM176 347H188V335H176V347ZM204 347H192V335H204V347ZM208 347H220V335H208V347ZM236 347H224V335H236V347ZM252 331H240V319H252V331ZM268 315H256V303H268V315ZM268 299H256V287H268V299ZM268 283H256V271H268V283ZM268 267H256V255H268V267ZM268 251H256V239H268V251ZM268 235H256V223H268V235ZM268 187H256V175H268V187ZM268 171H256V159H268V171ZM268 155H256V143H268V155ZM268 139H256V127H268V139ZM268 123H256V111H268V123ZM252 107H240V95H252V107ZM156 91H144V79H156V91ZM160 91H172V79H160V91ZM188 91H176V79H188V91ZM192 91H204V79H192V91ZM220 91H208V79H220V91ZM224 91H236V79H224V91ZM96 203H108V191H96V203ZM96 219H108V207H96V219Z"/>
</mask>
<path fill-rule="evenodd" clip-rule="evenodd" d="M128 91H140V79H128V91ZM112 107H124V95H112V107ZM96 123H108V111H96V123ZM96 139H108V127H96V139ZM96 155H108V143H96V155ZM96 171H108V159H96V171ZM96 187H108V175H96V187ZM268 203H256V191H268V203ZM256 219H268V207H256V219ZM96 235H108V223H96V235ZM96 251H108V239H96V251ZM96 267H108V255H96V267ZM96 283H108V271H96V283ZM96 299H108V287H96V299ZM96 315H108V303H96V315ZM96 331H108V319H96V331ZM96 347H108V335H96V347ZM108 363H96V351H108V363ZM172 379H160V367H172V379ZM96 379H108V367H96V379ZM172 363H160V351H172V363ZM172 347H160V335H172V347ZM176 347H188V335H176V347ZM204 347H192V335H204V347ZM208 347H220V335H208V347ZM236 347H224V335H236V347ZM252 331H240V319H252V331ZM268 315H256V303H268V315ZM268 299H256V287H268V299ZM268 283H256V271H268V283ZM268 267H256V255H268V267ZM268 251H256V239H268V251ZM268 235H256V223H268V235ZM268 187H256V175H268V187ZM268 171H256V159H268V171ZM268 155H256V143H268V155ZM268 139H256V127H268V139ZM268 123H256V111H268V123ZM252 107H240V95H252V107ZM156 91H144V79H156V91ZM160 91H172V79H160V91ZM188 91H176V79H188V91ZM192 91H204V79H192V91ZM220 91H208V79H220V91ZM224 91H236V79H224V91ZM96 203H108V191H96V203ZM96 219H108V207H96V219Z" fill="black"/>
<path d="M140 91V93H142V91H140ZM128 91H126V93H128V91ZM140 79H142V77H140V79ZM128 79V77H126V79H128ZM124 107V109H126V107H124ZM112 107H110V109H112V107ZM124 95H126V93H124V95ZM112 95V93H110V95H112ZM108 123V125H110V123H108ZM96 123H94V125H96V123ZM108 111H110V109H108V111ZM96 111V109H94V111H96ZM108 139V141H110V139H108ZM96 139H94V141H96V139ZM108 127H110V125H108V127ZM96 127V125H94V127H96ZM108 155V157H110V155H108ZM96 155H94V157H96V155ZM108 143H110V141H108V143ZM96 143V141H94V143H96ZM108 171V173H110V171H108ZM96 171H94V173H96V171ZM108 159H110V157H108V159ZM96 159V157H94V159H96ZM108 187V189H110V187H108ZM96 187H94V189H96V187ZM108 175H110V173H108V175ZM96 175V173H94V175H96ZM256 203H254V205H256V203ZM268 203V205H270V203H268ZM256 191V189H254V191H256ZM268 191H270V189H268V191ZM268 219V221H270V219H268ZM256 219H254V221H256V219ZM268 207H270V205H268V207ZM256 207V205H254V207H256ZM108 235V237H110V235H108ZM96 235H94V237H96V235ZM108 223H110V221H108V223ZM96 223V221H94V223H96ZM108 251V253H110V251H108ZM96 251H94V253H96V251ZM108 239H110V237H108V239ZM96 239V237H94V239H96ZM108 267V269H110V267H108ZM96 267H94V269H96V267ZM108 255H110V253H108V255ZM96 255V253H94V255H96ZM108 283V285H110V283H108ZM96 283H94V285H96V283ZM108 271H110V269H108V271ZM96 271V269H94V271H96ZM108 299V301H110V299H108ZM96 299H94V301H96V299ZM108 287H110V285H108V287ZM96 287V285H94V287H96ZM108 315V317H110V315H108ZM96 315H94V317H96V315ZM108 303H110V301H108V303ZM96 303V301H94V303H96ZM108 331V333H110V331H108ZM96 331H94V333H96V331ZM108 319H110V317H108V319ZM96 319V317H94V319H96ZM108 347V349H110V347H108ZM96 347H94V349H96V347ZM108 335H110V333H108V335ZM96 335V333H94V335H96ZM96 363H94V365H96V363ZM108 363V365H110V363H108ZM96 351V349H94V351H96ZM108 351H110V349H108V351ZM160 379H158V381H160V379ZM172 379V381H174V379H172ZM160 367V365H158V367H160ZM172 367H174V365H172V367ZM108 379V381H110V379H108ZM96 379H94V381H96V379ZM108 367H110V365H108V367ZM96 367V365H94V367H96ZM160 363H158V365H160V363ZM172 363V365H174V363H172ZM160 351V349H158V351H160ZM172 351H174V349H172V351ZM160 347H158V349H160V347ZM172 347V349H174V347H172ZM160 335V333H158V335H160ZM172 335H174V333H172V335ZM188 347V349H190V347H188ZM176 347H174V349H176V347ZM188 335H190V333H188V335ZM176 335V333H174V335H176ZM192 347H190V349H192V347ZM204 347V349H206V347H204ZM192 335V333H190V335H192ZM204 335H206V333H204V335ZM220 347V349H222V347H220ZM208 347H206V349H208V347ZM220 335H222V333H220V335ZM208 335V333H206V335H208ZM224 347H222V349H224V347ZM236 347V349H238V347H236ZM224 335V333H222V335H224ZM236 335H238V333H236V335ZM240 331H238V333H240V331ZM252 331V333H254V331H252ZM240 319V317H238V319H240ZM252 319H254V317H252V319ZM256 315H254V317H256V315ZM268 315V317H270V315H268ZM256 303V301H254V303H256ZM268 303H270V301H268V303ZM256 299H254V301H256V299ZM268 299V301H270V299H268ZM256 287V285H254V287H256ZM268 287H270V285H268V287ZM256 283H254V285H256V283ZM268 283V285H270V283H268ZM256 271V269H254V271H256ZM268 271H270V269H268V271ZM256 267H254V269H256V267ZM268 267V269H270V267H268ZM256 255V253H254V255H256ZM268 255H270V253H268V255ZM256 251H254V253H256V251ZM268 251V253H270V251H268ZM256 239V237H254V239H256ZM268 239H270V237H268V239ZM256 235H254V237H256V235ZM268 235V237H270V235H268ZM256 223V221H254V223H256ZM268 223H270V221H268V223ZM256 187H254V189H256V187ZM268 187V189H270V187H268ZM256 175V173H254V175H256ZM268 175H270V173H268V175ZM256 171H254V173H256V171ZM268 171V173H270V171H268ZM256 159V157H254V159H256ZM268 159H270V157H268V159ZM256 155H254V157H256V155ZM268 155V157H270V155H268ZM256 143V141H254V143H256ZM268 143H270V141H268V143ZM256 139H254V141H256V139ZM268 139V141H270V139H268ZM256 127V125H254V127H256ZM268 127H270V125H268V127ZM256 123H254V125H256V123ZM268 123V125H270V123H268ZM256 111V109H254V111H256ZM268 111H270V109H268V111ZM240 107H238V109H240V107ZM252 107V109H254V107H252ZM240 95V93H238V95H240ZM252 95H254V93H252V95ZM144 91H142V93H144V91ZM156 91V93H158V91H156ZM144 79V77H142V79H144ZM156 79H158V77H156V79ZM172 91V93H174V91H172ZM160 91H158V93H160V91ZM172 79H174V77H172V79ZM160 79V77H158V79H160ZM176 91H174V93H176V91ZM188 91V93H190V91H188ZM176 79V77H174V79H176ZM188 79H190V77H188V79ZM204 91V93H206V91H204ZM192 91H190V93H192V91ZM204 79H206V77H204V79ZM192 79V77H190V79H192ZM208 91H206V93H208V91ZM220 91V93H222V91H220ZM208 79V77H206V79H208ZM220 79H222V77H220V79ZM236 91V93H238V91H236ZM224 91H222V93H224V91ZM236 79H238V77H236V79ZM224 79V77H222V79H224ZM108 203V205H110V203H108ZM96 203H94V205H96V203ZM108 191H110V189H108V191ZM96 191V189H94V191H96ZM108 219V221H110V219H108ZM96 219H94V221H96V219ZM108 207H110V205H108V207ZM96 207V205H94V207H96ZM140 89H128V93H140V89ZM138 79V91H142V79H138ZM128 81H140V77H128V81ZM130 91V79H126V91H130ZM124 105H112V109H124V105ZM122 95V107H126V95H122ZM112 97H124V93H112V97ZM114 107V95H110V107H114ZM108 121H96V125H108V121ZM106 111V123H110V111H106ZM96 113H108V109H96V113ZM98 123V111H94V123H98ZM108 137H96V141H108V137ZM106 127V139H110V127H106ZM96 129H108V125H96V129ZM98 139V127H94V139H98ZM108 153H96V157H108V153ZM106 143V155H110V143H106ZM96 145H108V141H96V145ZM98 155V143H94V155H98ZM108 169H96V173H108V169ZM106 159V171H110V159H106ZM96 161H108V157H96V161ZM98 171V159H94V171H98ZM108 185H96V189H108V185ZM106 175V187H110V175H106ZM96 177H108V173H96V177ZM98 187V175H94V187H98ZM256 205H268V201H256V205ZM254 191V203H258V191H254ZM268 189H256V193H268V189ZM270 203V191H266V203H270ZM268 217H256V221H268V217ZM266 207V219H270V207H266ZM256 209H268V205H256V209ZM258 219V207H254V219H258ZM108 233H96V237H108V233ZM106 223V235H110V223H106ZM96 225H108V221H96V225ZM98 235V223H94V235H98ZM108 249H96V253H108V249ZM106 239V251H110V239H106ZM96 241H108V237H96V241ZM98 251V239H94V251H98ZM108 265H96V269H108V265ZM106 255V267H110V255H106ZM96 257H108V253H96V257ZM98 267V255H94V267H98ZM108 281H96V285H108V281ZM106 271V283H110V271H106ZM96 273H108V269H96V273ZM98 283V271H94V283H98ZM108 297H96V301H108V297ZM106 287V299H110V287H106ZM96 289H108V285H96V289ZM98 299V287H94V299H98ZM108 313H96V317H108V313ZM106 303V315H110V303H106ZM96 305H108V301H96V305ZM98 315V303H94V315H98ZM108 329H96V333H108V329ZM106 319V331H110V319H106ZM96 321H108V317H96V321ZM98 331V319H94V331H98ZM108 345H96V349H108V345ZM106 335V347H110V335H106ZM96 337H108V333H96V337ZM98 347V335H94V347H98ZM96 365H108V361H96V365ZM94 351V363H98V351H94ZM108 349H96V353H108V349ZM110 363V351H106V363H110ZM160 381H172V377H160V381ZM158 367V379H162V367H158ZM172 365H160V369H172V365ZM174 379V367H170V379H174ZM108 377H96V381H108V377ZM106 367V379H110V367H106ZM96 369H108V365H96V369ZM98 379V367H94V379H98ZM160 365H172V361H160V365ZM158 351V363H162V351H158ZM172 349H160V353H172V349ZM174 363V351H170V363H174ZM160 349H172V345H160V349ZM158 335V347H162V335H158ZM172 333H160V337H172V333ZM174 347V335H170V347H174ZM188 345H176V349H188V345ZM186 335V347H190V335H186ZM176 337H188V333H176V337ZM178 347V335H174V347H178ZM192 349H204V345H192V349ZM190 335V347H194V335H190ZM204 333H192V337H204V333ZM206 347V335H202V347H206ZM220 345H208V349H220V345ZM218 335V347H222V335H218ZM208 337H220V333H208V337ZM210 347V335H206V347H210ZM224 349H236V345H224V349ZM222 335V347H226V335H222ZM236 333H224V337H236V333ZM238 347V335H234V347H238ZM240 333H252V329H240V333ZM238 319V331H242V319H238ZM252 317H240V321H252V317ZM254 331V319H250V331H254ZM256 317H268V313H256V317ZM254 303V315H258V303H254ZM268 301H256V305H268V301ZM270 315V303H266V315H270ZM256 301H268V297H256V301ZM254 287V299H258V287H254ZM268 285H256V289H268V285ZM270 299V287H266V299H270ZM256 285H268V281H256V285ZM254 271V283H258V271H254ZM268 269H256V273H268V269ZM270 283V271H266V283H270ZM256 269H268V265H256V269ZM254 255V267H258V255H254ZM268 253H256V257H268V253ZM270 267V255H266V267H270ZM256 253H268V249H256V253ZM254 239V251H258V239H254ZM268 237H256V241H268V237ZM270 251V239H266V251H270ZM256 237H268V233H256V237ZM254 223V235H258V223H254ZM268 221H256V225H268V221ZM270 235V223H266V235H270ZM256 189H268V185H256V189ZM254 175V187H258V175H254ZM268 173H256V177H268V173ZM270 187V175H266V187H270ZM256 173H268V169H256V173ZM254 159V171H258V159H254ZM268 157H256V161H268V157ZM270 171V159H266V171H270ZM256 157H268V153H256V157ZM254 143V155H258V143H254ZM268 141H256V145H268V141ZM270 155V143H266V155H270ZM256 141H268V137H256V141ZM254 127V139H258V127H254ZM268 125H256V129H268V125ZM270 139V127H266V139H270ZM256 125H268V121H256V125ZM254 111V123H258V111H254ZM268 109H256V113H268V109ZM270 123V111H266V123H270ZM240 109H252V105H240V109ZM238 95V107H242V95H238ZM252 93H240V97H252V93ZM254 107V95H250V107H254ZM144 93H156V89H144V93ZM142 79V91H146V79H142ZM156 77H144V81H156V77ZM158 91V79H154V91H158ZM172 89H160V93H172V89ZM170 79V91H174V79H170ZM160 81H172V77H160V81ZM162 91V79H158V91H162ZM176 93H188V89H176V93ZM174 79V91H178V79H174ZM188 77H176V81H188V77ZM190 91V79H186V91H190ZM204 89H192V93H204V89ZM202 79V91H206V79H202ZM192 81H204V77H192V81ZM194 91V79H190V91H194ZM208 93H220V89H208V93ZM206 79V91H210V79H206ZM220 77H208V81H220V77ZM222 91V79H218V91H222ZM236 89H224V93H236V89ZM234 79V91H238V79H234ZM224 81H236V77H224V81ZM226 91V79H222V91H226ZM108 201H96V205H108V201ZM106 191V203H110V191H106ZM96 193H108V189H96V193ZM98 203V191H94V203H98ZM108 217H96V221H108V217ZM106 207V219H110V207H106ZM96 209H108V205H96V209ZM98 219V207H94V219H98Z" fill="white" mask="url(#path-4-inside-2_315_3010)"/>
</svg>
