<svg width="382" height="382" viewBox="0 0 382 382" fill="none" xmlns="http://www.w3.org/2000/svg">
<rect x="0.5" y="0.5" width="381" height="381" fill="black"/>
<rect x="0.5" y="0.5" width="381" height="381" stroke="white"/>
<mask id="path-2-inside-1_245_85808" fill="white">
<path fill-rule="evenodd" clip-rule="evenodd" d="M141 109H129V97H141V109ZM113 125H125V113H113V125ZM125 141H113V129H125V141ZM113 157H125V145H113V157ZM125 173H113V161H125V173ZM113 189H125V177H113V189ZM125 205H113V193H125V205ZM113 221H125V209H113V221ZM125 237H113V225H125V237ZM113 253H125V241H113V253ZM125 269H113V257H125V269ZM113 285H125V273H113V285ZM125 301H113V289H125V301ZM113 317H125V305H113V317ZM113 333H125V321H113V333ZM125 349H113V337H125V349ZM125 365H113V353H125V365ZM129 381H141V369H129V381ZM145 381H157V369H145V381ZM113 381H125V369H113V381ZM141 365H129V353H141V365ZM145 365H157V353H145V365ZM129 349H141V337H129V349ZM157 349H145V337H157V349ZM141 333H129V321H141V333ZM145 333H157V321H145V333ZM173 333H161V321H173V333ZM177 333H189V321H177V333ZM205 333H193V321H205V333ZM209 333H221V321H209V333ZM237 333H225V321H237V333ZM141 317H129V305H141V317ZM145 317H157V305H145V317ZM173 317H161V305H173V317ZM177 317H189V305H177V317ZM205 317H193V305H205V317ZM209 317H221V305H209V317ZM237 317H225V305H237V317ZM241 317H253V305H241V317ZM129 301H141V289H129V301ZM157 301H145V289H157V301ZM161 301H173V289H161V301ZM189 301H177V289H189V301ZM193 301H205V289H193V301ZM221 301H209V289H221V301ZM225 301H237V289H225V301ZM253 301H241V289H253V301ZM141 285H129V273H141V285ZM145 285H157V273H145V285ZM173 285H161V273H173V285ZM177 285H189V273H177V285ZM205 285H193V273H205V285ZM209 285H221V273H209V285ZM237 285H225V273H237V285ZM241 285H253V273H241V285ZM129 269H141V257H129V269ZM157 269H145V257H157V269ZM161 269H173V257H161V269ZM189 269H177V257H189V269ZM193 269H205V257H193V269ZM221 269H209V257H221V269ZM225 269H237V257H225V269ZM253 269H241V257H253V269ZM141 253H129V241H141V253ZM145 253H157V241H145V253ZM173 253H161V241H173V253ZM177 253H189V241H177V253ZM205 253H193V241H205V253ZM209 253H221V241H209V253ZM237 253H225V241H237V253ZM241 253H253V241H241V253ZM129 237H141V225H129V237ZM157 237H145V225H157V237ZM161 237H173V225H161V237ZM189 237H177V225H189V237ZM193 237H205V225H193V237ZM221 237H209V225H221V237ZM225 237H237V225H225V237ZM253 237H241V225H253V237ZM141 221H129V209H141V221ZM145 221H157V209H145V221ZM173 221H161V209H173V221ZM177 221H189V209H177V221ZM205 221H193V209H205V221ZM209 221H221V209H209V221ZM237 221H225V209H237V221ZM241 221H253V209H241V221ZM129 205H141V193H129V205ZM157 205H145V193H157V205ZM161 205H173V193H161V205ZM189 205H177V193H189V205ZM193 205H205V193H193V205ZM221 205H209V193H221V205ZM225 205H237V193H225V205ZM253 205H241V193H253V205ZM141 189H129V177H141V189ZM145 189H157V177H145V189ZM173 189H161V177H173V189ZM177 189H189V177H177V189ZM205 189H193V177H205V189ZM209 189H221V177H209V189ZM237 189H225V177H237V189ZM241 189H253V177H241V189ZM129 173H141V161H129V173ZM157 173H145V161H157V173ZM161 173H173V161H161V173ZM189 173H177V161H189V173ZM193 173H205V161H193V173ZM221 173H209V161H221V173ZM225 173H237V161H225V173ZM253 173H241V161H253V173ZM141 157H129V145H141V157ZM145 157H157V145H145V157ZM173 157H161V145H173V157ZM177 157H189V145H177V157ZM205 157H193V145H205V157ZM209 157H221V145H209V157ZM237 157H225V145H237V157ZM241 157H253V145H241V157ZM129 141H141V129H129V141ZM157 141H145V129H157V141ZM161 141H173V129H161V141ZM189 141H177V129H189V141ZM193 141H205V129H193V141ZM221 141H209V129H221V141ZM225 141H237V129H225V141ZM253 141H241V129H253V141ZM141 125H129V113H141V125ZM145 125H157V113H145V125ZM173 125H161V113H173V125ZM177 125H189V113H177V125ZM205 125H193V113H205V125ZM209 125H221V113H209V125ZM237 125H225V113H237V125ZM241 125H253V113H241V125ZM145 109H157V97H145V109ZM173 109H161V97H173V109ZM177 109H189V97H177V109ZM205 109H193V97H205V109ZM209 109H221V97H209V109ZM237 109H225V97H237V109Z"/>
</mask>
<path fill-rule="evenodd" clip-rule="evenodd" d="M141 109H129V97H141V109ZM113 125H125V113H113V125ZM125 141H113V129H125V141ZM113 157H125V145H113V157ZM125 173H113V161H125V173ZM113 189H125V177H113V189ZM125 205H113V193H125V205ZM113 221H125V209H113V221ZM125 237H113V225H125V237ZM113 253H125V241H113V253ZM125 269H113V257H125V269ZM113 285H125V273H113V285ZM125 301H113V289H125V301ZM113 317H125V305H113V317ZM113 333H125V321H113V333ZM125 349H113V337H125V349ZM125 365H113V353H125V365ZM129 381H141V369H129V381ZM145 381H157V369H145V381ZM113 381H125V369H113V381ZM141 365H129V353H141V365ZM145 365H157V353H145V365ZM129 349H141V337H129V349ZM157 349H145V337H157V349ZM141 333H129V321H141V333ZM145 333H157V321H145V333ZM173 333H161V321H173V333ZM177 333H189V321H177V333ZM205 333H193V321H205V333ZM209 333H221V321H209V333ZM237 333H225V321H237V333ZM141 317H129V305H141V317ZM145 317H157V305H145V317ZM173 317H161V305H173V317ZM177 317H189V305H177V317ZM205 317H193V305H205V317ZM209 317H221V305H209V317ZM237 317H225V305H237V317ZM241 317H253V305H241V317ZM129 301H141V289H129V301ZM157 301H145V289H157V301ZM161 301H173V289H161V301ZM189 301H177V289H189V301ZM193 301H205V289H193V301ZM221 301H209V289H221V301ZM225 301H237V289H225V301ZM253 301H241V289H253V301ZM141 285H129V273H141V285ZM145 285H157V273H145V285ZM173 285H161V273H173V285ZM177 285H189V273H177V285ZM205 285H193V273H205V285ZM209 285H221V273H209V285ZM237 285H225V273H237V285ZM241 285H253V273H241V285ZM129 269H141V257H129V269ZM157 269H145V257H157V269ZM161 269H173V257H161V269ZM189 269H177V257H189V269ZM193 269H205V257H193V269ZM221 269H209V257H221V269ZM225 269H237V257H225V269ZM253 269H241V257H253V269ZM141 253H129V241H141V253ZM145 253H157V241H145V253ZM173 253H161V241H173V253ZM177 253H189V241H177V253ZM205 253H193V241H205V253ZM209 253H221V241H209V253ZM237 253H225V241H237V253ZM241 253H253V241H241V253ZM129 237H141V225H129V237ZM157 237H145V225H157V237ZM161 237H173V225H161V237ZM189 237H177V225H189V237ZM193 237H205V225H193V237ZM221 237H209V225H221V237ZM225 237H237V225H225V237ZM253 237H241V225H253V237ZM141 221H129V209H141V221ZM145 221H157V209H145V221ZM173 221H161V209H173V221ZM177 221H189V209H177V221ZM205 221H193V209H205V221ZM209 221H221V209H209V221ZM237 221H225V209H237V221ZM241 221H253V209H241V221ZM129 205H141V193H129V205ZM157 205H145V193H157V205ZM161 205H173V193H161V205ZM189 205H177V193H189V205ZM193 205H205V193H193V205ZM221 205H209V193H221V205ZM225 205H237V193H225V205ZM253 205H241V193H253V205ZM141 189H129V177H141V189ZM145 189H157V177H145V189ZM173 189H161V177H173V189ZM177 189H189V177H177V189ZM205 189H193V177H205V189ZM209 189H221V177H209V189ZM237 189H225V177H237V189ZM241 189H253V177H241V189ZM129 173H141V161H129V173ZM157 173H145V161H157V173ZM161 173H173V161H161V173ZM189 173H177V161H189V173ZM193 173H205V161H193V173ZM221 173H209V161H221V173ZM225 173H237V161H225V173ZM253 173H241V161H253V173ZM141 157H129V145H141V157ZM145 157H157V145H145V157ZM173 157H161V145H173V157ZM177 157H189V145H177V157ZM205 157H193V145H205V157ZM209 157H221V145H209V157ZM237 157H225V145H237V157ZM241 157H253V145H241V157ZM129 141H141V129H129V141ZM157 141H145V129H157V141ZM161 141H173V129H161V141ZM189 141H177V129H189V141ZM193 141H205V129H193V141ZM221 141H209V129H221V141ZM225 141H237V129H225V141ZM253 141H241V129H253V141ZM141 125H129V113H141V125ZM145 125H157V113H145V125ZM173 125H161V113H173V125ZM177 125H189V113H177V125ZM205 125H193V113H205V125ZM209 125H221V113H209V125ZM237 125H225V113H237V125ZM241 125H253V113H241V125ZM145 109H157V97H145V109ZM173 109H161V97H173V109ZM177 109H189V97H177V109ZM205 109H193V97H205V109ZM209 109H221V97H209V109ZM237 109H225V97H237V109Z" fill="black"/>
<path d="M129 109H126V112H129V109ZM141 109V112H144V109H141ZM129 97V94H126V97H129ZM141 97H144V94H141V97ZM125 125V128H128V125H125ZM113 125H110V128H113V125ZM125 113H128V110H125V113ZM113 113V110H110V113H113ZM113 141H110V144H113V141ZM125 141V144H128V141H125ZM113 129V126H110V129H113ZM125 129H128V126H125V129ZM125 157V160H128V157H125ZM113 157H110V160H113V157ZM125 145H128V142H125V145ZM113 145V142H110V145H113ZM113 173H110V176H113V173ZM125 173V176H128V173H125ZM113 161V158H110V161H113ZM125 161H128V158H125V161ZM125 189V192H128V189H125ZM113 189H110V192H113V189ZM125 177H128V174H125V177ZM113 177V174H110V177H113ZM113 205H110V208H113V205ZM125 205V208H128V205H125ZM113 193V190H110V193H113ZM125 193H128V190H125V193ZM125 221V224H128V221H125ZM113 221H110V224H113V221ZM125 209H128V206H125V209ZM113 209V206H110V209H113ZM113 237H110V240H113V237ZM125 237V240H128V237H125ZM113 225V222H110V225H113ZM125 225H128V222H125V225ZM125 253V256H128V253H125ZM113 253H110V256H113V253ZM125 241H128V238H125V241ZM113 241V238H110V241H113ZM113 269H110V272H113V269ZM125 269V272H128V269H125ZM113 257V254H110V257H113ZM125 257H128V254H125V257ZM125 285V288H128V285H125ZM113 285H110V288H113V285ZM125 273H128V270H125V273ZM113 273V270H110V273H113ZM113 301H110V304H113V301ZM125 301V304H128V301H125ZM113 289V286H110V289H113ZM125 289H128V286H125V289ZM125 317V320H128V317H125ZM113 317H110V320H113V317ZM125 305H128V302H125V305ZM113 305V302H110V305H113ZM125 333V336H128V333H125ZM113 333H110V336H113V333ZM125 321H128V318H125V321ZM113 321V318H110V321H113ZM113 349H110V352H113V349ZM125 349V352H128V349H125ZM113 337V334H110V337H113ZM125 337H128V334H125V337ZM113 365H110V368H113V365ZM125 365V368H128V365H125ZM113 353V350H110V353H113ZM125 353H128V350H125V353ZM141 381V384H144V381H141ZM129 381H126V384H129V381ZM141 369H144V366H141V369ZM129 369V366H126V369H129ZM157 381V384H160V381H157ZM145 381H142V384H145V381ZM157 369H160V366H157V369ZM145 369V366H142V369H145ZM125 381V384H128V381H125ZM113 381H110V384H113V381ZM125 369H128V366H125V369ZM113 369V366H110V369H113ZM129 365H126V368H129V365ZM141 365V368H144V365H141ZM129 353V350H126V353H129ZM141 353H144V350H141V353ZM157 365V368H160V365H157ZM145 365H142V368H145V365ZM157 353H160V350H157V353ZM145 353V350H142V353H145ZM141 349V352H144V349H141ZM129 349H126V352H129V349ZM141 337H144V334H141V337ZM129 337V334H126V337H129ZM145 349H142V352H145V349ZM157 349V352H160V349H157ZM145 337V334H142V337H145ZM157 337H160V334H157V337ZM129 333H126V336H129V333ZM141 333V336H144V333H141ZM129 321V318H126V321H129ZM141 321H144V318H141V321ZM157 333V336H160V333H157ZM145 333H142V336H145V333ZM157 321H160V318H157V321ZM145 321V318H142V321H145ZM161 333H158V336H161V333ZM173 333V336H176V333H173ZM161 321V318H158V321H161ZM173 321H176V318H173V321ZM189 333V336H192V333H189ZM177 333H174V336H177V333ZM189 321H192V318H189V321ZM177 321V318H174V321H177ZM193 333H190V336H193V333ZM205 333V336H208V333H205ZM193 321V318H190V321H193ZM205 321H208V318H205V321ZM221 333V336H224V333H221ZM209 333H206V336H209V333ZM221 321H224V318H221V321ZM209 321V318H206V321H209ZM225 333H222V336H225V333ZM237 333V336H240V333H237ZM225 321V318H222V321H225ZM237 321H240V318H237V321ZM129 317H126V320H129V317ZM141 317V320H144V317H141ZM129 305V302H126V305H129ZM141 305H144V302H141V305ZM157 317V320H160V317H157ZM145 317H142V320H145V317ZM157 305H160V302H157V305ZM145 305V302H142V305H145ZM161 317H158V320H161V317ZM173 317V320H176V317H173ZM161 305V302H158V305H161ZM173 305H176V302H173V305ZM189 317V320H192V317H189ZM177 317H174V320H177V317ZM189 305H192V302H189V305ZM177 305V302H174V305H177ZM193 317H190V320H193V317ZM205 317V320H208V317H205ZM193 305V302H190V305H193ZM205 305H208V302H205V305ZM221 317V320H224V317H221ZM209 317H206V320H209V317ZM221 305H224V302H221V305ZM209 305V302H206V305H209ZM225 317H222V320H225V317ZM237 317V320H240V317H237ZM225 305V302H222V305H225ZM237 305H240V302H237V305ZM253 317V320H256V317H253ZM241 317H238V320H241V317ZM253 305H256V302H253V305ZM241 305V302H238V305H241ZM141 301V304H144V301H141ZM129 301H126V304H129V301ZM141 289H144V286H141V289ZM129 289V286H126V289H129ZM145 301H142V304H145V301ZM157 301V304H160V301H157ZM145 289V286H142V289H145ZM157 289H160V286H157V289ZM173 301V304H176V301H173ZM161 301H158V304H161V301ZM173 289H176V286H173V289ZM161 289V286H158V289H161ZM177 301H174V304H177V301ZM189 301V304H192V301H189ZM177 289V286H174V289H177ZM189 289H192V286H189V289ZM205 301V304H208V301H205ZM193 301H190V304H193V301ZM205 289H208V286H205V289ZM193 289V286H190V289H193ZM209 301H206V304H209V301ZM221 301V304H224V301H221ZM209 289V286H206V289H209ZM221 289H224V286H221V289ZM237 301V304H240V301H237ZM225 301H222V304H225V301ZM237 289H240V286H237V289ZM225 289V286H222V289H225ZM241 301H238V304H241V301ZM253 301V304H256V301H253ZM241 289V286H238V289H241ZM253 289H256V286H253V289ZM129 285H126V288H129V285ZM141 285V288H144V285H141ZM129 273V270H126V273H129ZM141 273H144V270H141V273ZM157 285V288H160V285H157ZM145 285H142V288H145V285ZM157 273H160V270H157V273ZM145 273V270H142V273H145ZM161 285H158V288H161V285ZM173 285V288H176V285H173ZM161 273V270H158V273H161ZM173 273H176V270H173V273ZM189 285V288H192V285H189ZM177 285H174V288H177V285ZM189 273H192V270H189V273ZM177 273V270H174V273H177ZM193 285H190V288H193V285ZM205 285V288H208V285H205ZM193 273V270H190V273H193ZM205 273H208V270H205V273ZM221 285V288H224V285H221ZM209 285H206V288H209V285ZM221 273H224V270H221V273ZM209 273V270H206V273H209ZM225 285H222V288H225V285ZM237 285V288H240V285H237ZM225 273V270H222V273H225ZM237 273H240V270H237V273ZM253 285V288H256V285H253ZM241 285H238V288H241V285ZM253 273H256V270H253V273ZM241 273V270H238V273H241ZM141 269V272H144V269H141ZM129 269H126V272H129V269ZM141 257H144V254H141V257ZM129 257V254H126V257H129ZM145 269H142V272H145V269ZM157 269V272H160V269H157ZM145 257V254H142V257H145ZM157 257H160V254H157V257ZM173 269V272H176V269H173ZM161 269H158V272H161V269ZM173 257H176V254H173V257ZM161 257V254H158V257H161ZM177 269H174V272H177V269ZM189 269V272H192V269H189ZM177 257V254H174V257H177ZM189 257H192V254H189V257ZM205 269V272H208V269H205ZM193 269H190V272H193V269ZM205 257H208V254H205V257ZM193 257V254H190V257H193ZM209 269H206V272H209V269ZM221 269V272H224V269H221ZM209 257V254H206V257H209ZM221 257H224V254H221V257ZM237 269V272H240V269H237ZM225 269H222V272H225V269ZM237 257H240V254H237V257ZM225 257V254H222V257H225ZM241 269H238V272H241V269ZM253 269V272H256V269H253ZM241 257V254H238V257H241ZM253 257H256V254H253V257ZM129 253H126V256H129V253ZM141 253V256H144V253H141ZM129 241V238H126V241H129ZM141 241H144V238H141V241ZM157 253V256H160V253H157ZM145 253H142V256H145V253ZM157 241H160V238H157V241ZM145 241V238H142V241H145ZM161 253H158V256H161V253ZM173 253V256H176V253H173ZM161 241V238H158V241H161ZM173 241H176V238H173V241ZM189 253V256H192V253H189ZM177 253H174V256H177V253ZM189 241H192V238H189V241ZM177 241V238H174V241H177ZM193 253H190V256H193V253ZM205 253V256H208V253H205ZM193 241V238H190V241H193ZM205 241H208V238H205V241ZM221 253V256H224V253H221ZM209 253H206V256H209V253ZM221 241H224V238H221V241ZM209 241V238H206V241H209ZM225 253H222V256H225V253ZM237 253V256H240V253H237ZM225 241V238H222V241H225ZM237 241H240V238H237V241ZM253 253V256H256V253H253ZM241 253H238V256H241V253ZM253 241H256V238H253V241ZM241 241V238H238V241H241ZM141 237V240H144V237H141ZM129 237H126V240H129V237ZM141 225H144V222H141V225ZM129 225V222H126V225H129ZM145 237H142V240H145V237ZM157 237V240H160V237H157ZM145 225V222H142V225H145ZM157 225H160V222H157V225ZM173 237V240H176V237H173ZM161 237H158V240H161V237ZM173 225H176V222H173V225ZM161 225V222H158V225H161ZM177 237H174V240H177V237ZM189 237V240H192V237H189ZM177 225V222H174V225H177ZM189 225H192V222H189V225ZM205 237V240H208V237H205ZM193 237H190V240H193V237ZM205 225H208V222H205V225ZM193 225V222H190V225H193ZM209 237H206V240H209V237ZM221 237V240H224V237H221ZM209 225V222H206V225H209ZM221 225H224V222H221V225ZM237 237V240H240V237H237ZM225 237H222V240H225V237ZM237 225H240V222H237V225ZM225 225V222H222V225H225ZM241 237H238V240H241V237ZM253 237V240H256V237H253ZM241 225V222H238V225H241ZM253 225H256V222H253V225ZM129 221H126V224H129V221ZM141 221V224H144V221H141ZM129 209V206H126V209H129ZM141 209H144V206H141V209ZM157 221V224H160V221H157ZM145 221H142V224H145V221ZM157 209H160V206H157V209ZM145 209V206H142V209H145ZM161 221H158V224H161V221ZM173 221V224H176V221H173ZM161 209V206H158V209H161ZM173 209H176V206H173V209ZM189 221V224H192V221H189ZM177 221H174V224H177V221ZM189 209H192V206H189V209ZM177 209V206H174V209H177ZM193 221H190V224H193V221ZM205 221V224H208V221H205ZM193 209V206H190V209H193ZM205 209H208V206H205V209ZM221 221V224H224V221H221ZM209 221H206V224H209V221ZM221 209H224V206H221V209ZM209 209V206H206V209H209ZM225 221H222V224H225V221ZM237 221V224H240V221H237ZM225 209V206H222V209H225ZM237 209H240V206H237V209ZM253 221V224H256V221H253ZM241 221H238V224H241V221ZM253 209H256V206H253V209ZM241 209V206H238V209H241ZM141 205V208H144V205H141ZM129 205H126V208H129V205ZM141 193H144V190H141V193ZM129 193V190H126V193H129ZM145 205H142V208H145V205ZM157 205V208H160V205H157ZM145 193V190H142V193H145ZM157 193H160V190H157V193ZM173 205V208H176V205H173ZM161 205H158V208H161V205ZM173 193H176V190H173V193ZM161 193V190H158V193H161ZM177 205H174V208H177V205ZM189 205V208H192V205H189ZM177 193V190H174V193H177ZM189 193H192V190H189V193ZM205 205V208H208V205H205ZM193 205H190V208H193V205ZM205 193H208V190H205V193ZM193 193V190H190V193H193ZM209 205H206V208H209V205ZM221 205V208H224V205H221ZM209 193V190H206V193H209ZM221 193H224V190H221V193ZM237 205V208H240V205H237ZM225 205H222V208H225V205ZM237 193H240V190H237V193ZM225 193V190H222V193H225ZM241 205H238V208H241V205ZM253 205V208H256V205H253ZM241 193V190H238V193H241ZM253 193H256V190H253V193ZM129 189H126V192H129V189ZM141 189V192H144V189H141ZM129 177V174H126V177H129ZM141 177H144V174H141V177ZM157 189V192H160V189H157ZM145 189H142V192H145V189ZM157 177H160V174H157V177ZM145 177V174H142V177H145ZM161 189H158V192H161V189ZM173 189V192H176V189H173ZM161 177V174H158V177H161ZM173 177H176V174H173V177ZM189 189V192H192V189H189ZM177 189H174V192H177V189ZM189 177H192V174H189V177ZM177 177V174H174V177H177ZM193 189H190V192H193V189ZM205 189V192H208V189H205ZM193 177V174H190V177H193ZM205 177H208V174H205V177ZM221 189V192H224V189H221ZM209 189H206V192H209V189ZM221 177H224V174H221V177ZM209 177V174H206V177H209ZM225 189H222V192H225V189ZM237 189V192H240V189H237ZM225 177V174H222V177H225ZM237 177H240V174H237V177ZM253 189V192H256V189H253ZM241 189H238V192H241V189ZM253 177H256V174H253V177ZM241 177V174H238V177H241ZM141 173V176H144V173H141ZM129 173H126V176H129V173ZM141 161H144V158H141V161ZM129 161V158H126V161H129ZM145 173H142V176H145V173ZM157 173V176H160V173H157ZM145 161V158H142V161H145ZM157 161H160V158H157V161ZM173 173V176H176V173H173ZM161 173H158V176H161V173ZM173 161H176V158H173V161ZM161 161V158H158V161H161ZM177 173H174V176H177V173ZM189 173V176H192V173H189ZM177 161V158H174V161H177ZM189 161H192V158H189V161ZM205 173V176H208V173H205ZM193 173H190V176H193V173ZM205 161H208V158H205V161ZM193 161V158H190V161H193ZM209 173H206V176H209V173ZM221 173V176H224V173H221ZM209 161V158H206V161H209ZM221 161H224V158H221V161ZM237 173V176H240V173H237ZM225 173H222V176H225V173ZM237 161H240V158H237V161ZM225 161V158H222V161H225ZM241 173H238V176H241V173ZM253 173V176H256V173H253ZM241 161V158H238V161H241ZM253 161H256V158H253V161ZM129 157H126V160H129V157ZM141 157V160H144V157H141ZM129 145V142H126V145H129ZM141 145H144V142H141V145ZM157 157V160H160V157H157ZM145 157H142V160H145V157ZM157 145H160V142H157V145ZM145 145V142H142V145H145ZM161 157H158V160H161V157ZM173 157V160H176V157H173ZM161 145V142H158V145H161ZM173 145H176V142H173V145ZM189 157V160H192V157H189ZM177 157H174V160H177V157ZM189 145H192V142H189V145ZM177 145V142H174V145H177ZM193 157H190V160H193V157ZM205 157V160H208V157H205ZM193 145V142H190V145H193ZM205 145H208V142H205V145ZM221 157V160H224V157H221ZM209 157H206V160H209V157ZM221 145H224V142H221V145ZM209 145V142H206V145H209ZM225 157H222V160H225V157ZM237 157V160H240V157H237ZM225 145V142H222V145H225ZM237 145H240V142H237V145ZM253 157V160H256V157H253ZM241 157H238V160H241V157ZM253 145H256V142H253V145ZM241 145V142H238V145H241ZM141 141V144H144V141H141ZM129 141H126V144H129V141ZM141 129H144V126H141V129ZM129 129V126H126V129H129ZM145 141H142V144H145V141ZM157 141V144H160V141H157ZM145 129V126H142V129H145ZM157 129H160V126H157V129ZM173 141V144H176V141H173ZM161 141H158V144H161V141ZM173 129H176V126H173V129ZM161 129V126H158V129H161ZM177 141H174V144H177V141ZM189 141V144H192V141H189ZM177 129V126H174V129H177ZM189 129H192V126H189V129ZM205 141V144H208V141H205ZM193 141H190V144H193V141ZM205 129H208V126H205V129ZM193 129V126H190V129H193ZM209 141H206V144H209V141ZM221 141V144H224V141H221ZM209 129V126H206V129H209ZM221 129H224V126H221V129ZM237 141V144H240V141H237ZM225 141H222V144H225V141ZM237 129H240V126H237V129ZM225 129V126H222V129H225ZM241 141H238V144H241V141ZM253 141V144H256V141H253ZM241 129V126H238V129H241ZM253 129H256V126H253V129ZM129 125H126V128H129V125ZM141 125V128H144V125H141ZM129 113V110H126V113H129ZM141 113H144V110H141V113ZM157 125V128H160V125H157ZM145 125H142V128H145V125ZM157 113H160V110H157V113ZM145 113V110H142V113H145ZM161 125H158V128H161V125ZM173 125V128H176V125H173ZM161 113V110H158V113H161ZM173 113H176V110H173V113ZM189 125V128H192V125H189ZM177 125H174V128H177V125ZM189 113H192V110H189V113ZM177 113V110H174V113H177ZM193 125H190V128H193V125ZM205 125V128H208V125H205ZM193 113V110H190V113H193ZM205 113H208V110H205V113ZM221 125V128H224V125H221ZM209 125H206V128H209V125ZM221 113H224V110H221V113ZM209 113V110H206V113H209ZM225 125H222V128H225V125ZM237 125V128H240V125H237ZM225 113V110H222V113H225ZM237 113H240V110H237V113ZM253 125V128H256V125H253ZM241 125H238V128H241V125ZM253 113H256V110H253V113ZM241 113V110H238V113H241ZM157 109V112H160V109H157ZM145 109H142V112H145V109ZM157 97H160V94H157V97ZM145 97V94H142V97H145ZM161 109H158V112H161V109ZM173 109V112H176V109H173ZM161 97V94H158V97H161ZM173 97H176V94H173V97ZM189 109V112H192V109H189ZM177 109H174V112H177V109ZM189 97H192V94H189V97ZM177 97V94H174V97H177ZM193 109H190V112H193V109ZM205 109V112H208V109H205ZM193 97V94H190V97H193ZM205 97H208V94H205V97ZM221 109V112H224V109H221ZM209 109H206V112H209V109ZM221 97H224V94H221V97ZM209 97V94H206V97H209ZM225 109H222V112H225V109ZM237 109V112H240V109H237ZM225 97V94H222V97H225ZM237 97H240V94H237V97ZM129 112H141V106H129V112ZM126 97V109H132V97H126ZM141 94H129V100H141V94ZM144 109V97H138V109H144ZM125 122H113V128H125V122ZM122 113V125H128V113H122ZM113 116H125V110H113V116ZM116 125V113H110V125H116ZM113 144H125V138H113V144ZM110 129V141H116V129H110ZM125 126H113V132H125V126ZM128 141V129H122V141H128ZM125 154H113V160H125V154ZM122 145V157H128V145H122ZM113 148H125V142H113V148ZM116 157V145H110V157H116ZM113 176H125V170H113V176ZM110 161V173H116V161H110ZM125 158H113V164H125V158ZM128 173V161H122V173H128ZM125 186H113V192H125V186ZM122 177V189H128V177H122ZM113 180H125V174H113V180ZM116 189V177H110V189H116ZM113 208H125V202H113V208ZM110 193V205H116V193H110ZM125 190H113V196H125V190ZM128 205V193H122V205H128ZM125 218H113V224H125V218ZM122 209V221H128V209H122ZM113 212H125V206H113V212ZM116 221V209H110V221H116ZM113 240H125V234H113V240ZM110 225V237H116V225H110ZM125 222H113V228H125V222ZM128 237V225H122V237H128ZM125 250H113V256H125V250ZM122 241V253H128V241H122ZM113 244H125V238H113V244ZM116 253V241H110V253H116ZM113 272H125V266H113V272ZM110 257V269H116V257H110ZM125 254H113V260H125V254ZM128 269V257H122V269H128ZM125 282H113V288H125V282ZM122 273V285H128V273H122ZM113 276H125V270H113V276ZM116 285V273H110V285H116ZM113 304H125V298H113V304ZM110 289V301H116V289H110ZM125 286H113V292H125V286ZM128 301V289H122V301H128ZM125 314H113V320H125V314ZM122 305V317H128V305H122ZM113 308H125V302H113V308ZM116 317V305H110V317H116ZM125 330H113V336H125V330ZM122 321V333H128V321H122ZM113 324H125V318H113V324ZM116 333V321H110V333H116ZM113 352H125V346H113V352ZM110 337V349H116V337H110ZM125 334H113V340H125V334ZM128 349V337H122V349H128ZM113 368H125V362H113V368ZM110 353V365H116V353H110ZM125 350H113V356H125V350ZM128 365V353H122V365H128ZM141 378H129V384H141V378ZM138 369V381H144V369H138ZM129 372H141V366H129V372ZM132 381V369H126V381H132ZM157 378H145V384H157V378ZM154 369V381H160V369H154ZM145 372H157V366H145V372ZM148 381V369H142V381H148ZM125 378H113V384H125V378ZM122 369V381H128V369H122ZM113 372H125V366H113V372ZM116 381V369H110V381H116ZM129 368H141V362H129V368ZM126 353V365H132V353H126ZM141 350H129V356H141V350ZM144 365V353H138V365H144ZM157 362H145V368H157V362ZM154 353V365H160V353H154ZM145 356H157V350H145V356ZM148 365V353H142V365H148ZM141 346H129V352H141V346ZM138 337V349H144V337H138ZM129 340H141V334H129V340ZM132 349V337H126V349H132ZM145 352H157V346H145V352ZM142 337V349H148V337H142ZM157 334H145V340H157V334ZM160 349V337H154V349H160ZM129 336H141V330H129V336ZM126 321V333H132V321H126ZM141 318H129V324H141V318ZM144 333V321H138V333H144ZM157 330H145V336H157V330ZM154 321V333H160V321H154ZM145 324H157V318H145V324ZM148 333V321H142V333H148ZM161 336H173V330H161V336ZM158 321V333H164V321H158ZM173 318H161V324H173V318ZM176 333V321H170V333H176ZM189 330H177V336H189V330ZM186 321V333H192V321H186ZM177 324H189V318H177V324ZM180 333V321H174V333H180ZM193 336H205V330H193V336ZM190 321V333H196V321H190ZM205 318H193V324H205V318ZM208 333V321H202V333H208ZM221 330H209V336H221V330ZM218 321V333H224V321H218ZM209 324H221V318H209V324ZM212 333V321H206V333H212ZM225 336H237V330H225V336ZM222 321V333H228V321H222ZM237 318H225V324H237V318ZM240 333V321H234V333H240ZM129 320H141V314H129V320ZM126 305V317H132V305H126ZM141 302H129V308H141V302ZM144 317V305H138V317H144ZM157 314H145V320H157V314ZM154 305V317H160V305H154ZM145 308H157V302H145V308ZM148 317V305H142V317H148ZM161 320H173V314H161V320ZM158 305V317H164V305H158ZM173 302H161V308H173V302ZM176 317V305H170V317H176ZM189 314H177V320H189V314ZM186 305V317H192V305H186ZM177 308H189V302H177V308ZM180 317V305H174V317H180ZM193 320H205V314H193V320ZM190 305V317H196V305H190ZM205 302H193V308H205V302ZM208 317V305H202V317H208ZM221 314H209V320H221V314ZM218 305V317H224V305H218ZM209 308H221V302H209V308ZM212 317V305H206V317H212ZM225 320H237V314H225V320ZM222 305V317H228V305H222ZM237 302H225V308H237V302ZM240 317V305H234V317H240ZM253 314H241V320H253V314ZM250 305V317H256V305H250ZM241 308H253V302H241V308ZM244 317V305H238V317H244ZM141 298H129V304H141V298ZM138 289V301H144V289H138ZM129 292H141V286H129V292ZM132 301V289H126V301H132ZM145 304H157V298H145V304ZM142 289V301H148V289H142ZM157 286H145V292H157V286ZM160 301V289H154V301H160ZM173 298H161V304H173V298ZM170 289V301H176V289H170ZM161 292H173V286H161V292ZM164 301V289H158V301H164ZM177 304H189V298H177V304ZM174 289V301H180V289H174ZM189 286H177V292H189V286ZM192 301V289H186V301H192ZM205 298H193V304H205V298ZM202 289V301H208V289H202ZM193 292H205V286H193V292ZM196 301V289H190V301H196ZM209 304H221V298H209V304ZM206 289V301H212V289H206ZM221 286H209V292H221V286ZM224 301V289H218V301H224ZM237 298H225V304H237V298ZM234 289V301H240V289H234ZM225 292H237V286H225V292ZM228 301V289H222V301H228ZM241 304H253V298H241V304ZM238 289V301H244V289H238ZM253 286H241V292H253V286ZM256 301V289H250V301H256ZM129 288H141V282H129V288ZM126 273V285H132V273H126ZM141 270H129V276H141V270ZM144 285V273H138V285H144ZM157 282H145V288H157V282ZM154 273V285H160V273H154ZM145 276H157V270H145V276ZM148 285V273H142V285H148ZM161 288H173V282H161V288ZM158 273V285H164V273H158ZM173 270H161V276H173V270ZM176 285V273H170V285H176ZM189 282H177V288H189V282ZM186 273V285H192V273H186ZM177 276H189V270H177V276ZM180 285V273H174V285H180ZM193 288H205V282H193V288ZM190 273V285H196V273H190ZM205 270H193V276H205V270ZM208 285V273H202V285H208ZM221 282H209V288H221V282ZM218 273V285H224V273H218ZM209 276H221V270H209V276ZM212 285V273H206V285H212ZM225 288H237V282H225V288ZM222 273V285H228V273H222ZM237 270H225V276H237V270ZM240 285V273H234V285H240ZM253 282H241V288H253V282ZM250 273V285H256V273H250ZM241 276H253V270H241V276ZM244 285V273H238V285H244ZM141 266H129V272H141V266ZM138 257V269H144V257H138ZM129 260H141V254H129V260ZM132 269V257H126V269H132ZM145 272H157V266H145V272ZM142 257V269H148V257H142ZM157 254H145V260H157V254ZM160 269V257H154V269H160ZM173 266H161V272H173V266ZM170 257V269H176V257H170ZM161 260H173V254H161V260ZM164 269V257H158V269H164ZM177 272H189V266H177V272ZM174 257V269H180V257H174ZM189 254H177V260H189V254ZM192 269V257H186V269H192ZM205 266H193V272H205V266ZM202 257V269H208V257H202ZM193 260H205V254H193V260ZM196 269V257H190V269H196ZM209 272H221V266H209V272ZM206 257V269H212V257H206ZM221 254H209V260H221V254ZM224 269V257H218V269H224ZM237 266H225V272H237V266ZM234 257V269H240V257H234ZM225 260H237V254H225V260ZM228 269V257H222V269H228ZM241 272H253V266H241V272ZM238 257V269H244V257H238ZM253 254H241V260H253V254ZM256 269V257H250V269H256ZM129 256H141V250H129V256ZM126 241V253H132V241H126ZM141 238H129V244H141V238ZM144 253V241H138V253H144ZM157 250H145V256H157V250ZM154 241V253H160V241H154ZM145 244H157V238H145V244ZM148 253V241H142V253H148ZM161 256H173V250H161V256ZM158 241V253H164V241H158ZM173 238H161V244H173V238ZM176 253V241H170V253H176ZM189 250H177V256H189V250ZM186 241V253H192V241H186ZM177 244H189V238H177V244ZM180 253V241H174V253H180ZM193 256H205V250H193V256ZM190 241V253H196V241H190ZM205 238H193V244H205V238ZM208 253V241H202V253H208ZM221 250H209V256H221V250ZM218 241V253H224V241H218ZM209 244H221V238H209V244ZM212 253V241H206V253H212ZM225 256H237V250H225V256ZM222 241V253H228V241H222ZM237 238H225V244H237V238ZM240 253V241H234V253H240ZM253 250H241V256H253V250ZM250 241V253H256V241H250ZM241 244H253V238H241V244ZM244 253V241H238V253H244ZM141 234H129V240H141V234ZM138 225V237H144V225H138ZM129 228H141V222H129V228ZM132 237V225H126V237H132ZM145 240H157V234H145V240ZM142 225V237H148V225H142ZM157 222H145V228H157V222ZM160 237V225H154V237H160ZM173 234H161V240H173V234ZM170 225V237H176V225H170ZM161 228H173V222H161V228ZM164 237V225H158V237H164ZM177 240H189V234H177V240ZM174 225V237H180V225H174ZM189 222H177V228H189V222ZM192 237V225H186V237H192ZM205 234H193V240H205V234ZM202 225V237H208V225H202ZM193 228H205V222H193V228ZM196 237V225H190V237H196ZM209 240H221V234H209V240ZM206 225V237H212V225H206ZM221 222H209V228H221V222ZM224 237V225H218V237H224ZM237 234H225V240H237V234ZM234 225V237H240V225H234ZM225 228H237V222H225V228ZM228 237V225H222V237H228ZM241 240H253V234H241V240ZM238 225V237H244V225H238ZM253 222H241V228H253V222ZM256 237V225H250V237H256ZM129 224H141V218H129V224ZM126 209V221H132V209H126ZM141 206H129V212H141V206ZM144 221V209H138V221H144ZM157 218H145V224H157V218ZM154 209V221H160V209H154ZM145 212H157V206H145V212ZM148 221V209H142V221H148ZM161 224H173V218H161V224ZM158 209V221H164V209H158ZM173 206H161V212H173V206ZM176 221V209H170V221H176ZM189 218H177V224H189V218ZM186 209V221H192V209H186ZM177 212H189V206H177V212ZM180 221V209H174V221H180ZM193 224H205V218H193V224ZM190 209V221H196V209H190ZM205 206H193V212H205V206ZM208 221V209H202V221H208ZM221 218H209V224H221V218ZM218 209V221H224V209H218ZM209 212H221V206H209V212ZM212 221V209H206V221H212ZM225 224H237V218H225V224ZM222 209V221H228V209H222ZM237 206H225V212H237V206ZM240 221V209H234V221H240ZM253 218H241V224H253V218ZM250 209V221H256V209H250ZM241 212H253V206H241V212ZM244 221V209H238V221H244ZM141 202H129V208H141V202ZM138 193V205H144V193H138ZM129 196H141V190H129V196ZM132 205V193H126V205H132ZM145 208H157V202H145V208ZM142 193V205H148V193H142ZM157 190H145V196H157V190ZM160 205V193H154V205H160ZM173 202H161V208H173V202ZM170 193V205H176V193H170ZM161 196H173V190H161V196ZM164 205V193H158V205H164ZM177 208H189V202H177V208ZM174 193V205H180V193H174ZM189 190H177V196H189V190ZM192 205V193H186V205H192ZM205 202H193V208H205V202ZM202 193V205H208V193H202ZM193 196H205V190H193V196ZM196 205V193H190V205H196ZM209 208H221V202H209V208ZM206 193V205H212V193H206ZM221 190H209V196H221V190ZM224 205V193H218V205H224ZM237 202H225V208H237V202ZM234 193V205H240V193H234ZM225 196H237V190H225V196ZM228 205V193H222V205H228ZM241 208H253V202H241V208ZM238 193V205H244V193H238ZM253 190H241V196H253V190ZM256 205V193H250V205H256ZM129 192H141V186H129V192ZM126 177V189H132V177H126ZM141 174H129V180H141V174ZM144 189V177H138V189H144ZM157 186H145V192H157V186ZM154 177V189H160V177H154ZM145 180H157V174H145V180ZM148 189V177H142V189H148ZM161 192H173V186H161V192ZM158 177V189H164V177H158ZM173 174H161V180H173V174ZM176 189V177H170V189H176ZM189 186H177V192H189V186ZM186 177V189H192V177H186ZM177 180H189V174H177V180ZM180 189V177H174V189H180ZM193 192H205V186H193V192ZM190 177V189H196V177H190ZM205 174H193V180H205V174ZM208 189V177H202V189H208ZM221 186H209V192H221V186ZM218 177V189H224V177H218ZM209 180H221V174H209V180ZM212 189V177H206V189H212ZM225 192H237V186H225V192ZM222 177V189H228V177H222ZM237 174H225V180H237V174ZM240 189V177H234V189H240ZM253 186H241V192H253V186ZM250 177V189H256V177H250ZM241 180H253V174H241V180ZM244 189V177H238V189H244ZM141 170H129V176H141V170ZM138 161V173H144V161H138ZM129 164H141V158H129V164ZM132 173V161H126V173H132ZM145 176H157V170H145V176ZM142 161V173H148V161H142ZM157 158H145V164H157V158ZM160 173V161H154V173H160ZM173 170H161V176H173V170ZM170 161V173H176V161H170ZM161 164H173V158H161V164ZM164 173V161H158V173H164ZM177 176H189V170H177V176ZM174 161V173H180V161H174ZM189 158H177V164H189V158ZM192 173V161H186V173H192ZM205 170H193V176H205V170ZM202 161V173H208V161H202ZM193 164H205V158H193V164ZM196 173V161H190V173H196ZM209 176H221V170H209V176ZM206 161V173H212V161H206ZM221 158H209V164H221V158ZM224 173V161H218V173H224ZM237 170H225V176H237V170ZM234 161V173H240V161H234ZM225 164H237V158H225V164ZM228 173V161H222V173H228ZM241 176H253V170H241V176ZM238 161V173H244V161H238ZM253 158H241V164H253V158ZM256 173V161H250V173H256ZM129 160H141V154H129V160ZM126 145V157H132V145H126ZM141 142H129V148H141V142ZM144 157V145H138V157H144ZM157 154H145V160H157V154ZM154 145V157H160V145H154ZM145 148H157V142H145V148ZM148 157V145H142V157H148ZM161 160H173V154H161V160ZM158 145V157H164V145H158ZM173 142H161V148H173V142ZM176 157V145H170V157H176ZM189 154H177V160H189V154ZM186 145V157H192V145H186ZM177 148H189V142H177V148ZM180 157V145H174V157H180ZM193 160H205V154H193V160ZM190 145V157H196V145H190ZM205 142H193V148H205V142ZM208 157V145H202V157H208ZM221 154H209V160H221V154ZM218 145V157H224V145H218ZM209 148H221V142H209V148ZM212 157V145H206V157H212ZM225 160H237V154H225V160ZM222 145V157H228V145H222ZM237 142H225V148H237V142ZM240 157V145H234V157H240ZM253 154H241V160H253V154ZM250 145V157H256V145H250ZM241 148H253V142H241V148ZM244 157V145H238V157H244ZM141 138H129V144H141V138ZM138 129V141H144V129H138ZM129 132H141V126H129V132ZM132 141V129H126V141H132ZM145 144H157V138H145V144ZM142 129V141H148V129H142ZM157 126H145V132H157V126ZM160 141V129H154V141H160ZM173 138H161V144H173V138ZM170 129V141H176V129H170ZM161 132H173V126H161V132ZM164 141V129H158V141H164ZM177 144H189V138H177V144ZM174 129V141H180V129H174ZM189 126H177V132H189V126ZM192 141V129H186V141H192ZM205 138H193V144H205V138ZM202 129V141H208V129H202ZM193 132H205V126H193V132ZM196 141V129H190V141H196ZM209 144H221V138H209V144ZM206 129V141H212V129H206ZM221 126H209V132H221V126ZM224 141V129H218V141H224ZM237 138H225V144H237V138ZM234 129V141H240V129H234ZM225 132H237V126H225V132ZM228 141V129H222V141H228ZM241 144H253V138H241V144ZM238 129V141H244V129H238ZM253 126H241V132H253V126ZM256 141V129H250V141H256ZM129 128H141V122H129V128ZM126 113V125H132V113H126ZM141 110H129V116H141V110ZM144 125V113H138V125H144ZM157 122H145V128H157V122ZM154 113V125H160V113H154ZM145 116H157V110H145V116ZM148 125V113H142V125H148ZM161 128H173V122H161V128ZM158 113V125H164V113H158ZM173 110H161V116H173V110ZM176 125V113H170V125H176ZM189 122H177V128H189V122ZM186 113V125H192V113H186ZM177 116H189V110H177V116ZM180 125V113H174V125H180ZM193 128H205V122H193V128ZM190 113V125H196V113H190ZM205 110H193V116H205V110ZM208 125V113H202V125H208ZM221 122H209V128H221V122ZM218 113V125H224V113H218ZM209 116H221V110H209V116ZM212 125V113H206V125H212ZM225 128H237V122H225V128ZM222 113V125H228V113H222ZM237 110H225V116H237V110ZM240 125V113H234V125H240ZM253 122H241V128H253V122ZM250 113V125H256V113H250ZM241 116H253V110H241V116ZM244 125V113H238V125H244ZM157 106H145V112H157V106ZM154 97V109H160V97H154ZM145 100H157V94H145V100ZM148 109V97H142V109H148ZM161 112H173V106H161V112ZM158 97V109H164V97H158ZM173 94H161V100H173V94ZM176 109V97H170V109H176ZM189 106H177V112H189V106ZM186 97V109H192V97H186ZM177 100H189V94H177V100ZM180 109V97H174V109H180ZM193 112H205V106H193V112ZM190 97V109H196V97H190ZM205 94H193V100H205V94ZM208 109V97H202V109H208ZM221 106H209V112H221V106ZM218 97V109H224V97H218ZM209 100H221V94H209V100ZM212 109V97H206V109H212ZM225 112H237V106H225V112ZM222 97V109H228V97H222ZM237 94H225V100H237V94ZM240 109V97H234V109H240Z" fill="white" mask="url(#path-2-inside-1_245_85808)"/>
<mask id="path-4-inside-2_245_85808" fill="white">
<path fill-rule="evenodd" clip-rule="evenodd" d="M129 92H141V80H129V92ZM113 108H125V96H113V108ZM269 124H257V112H269V124ZM97 125H109V113H97V125ZM269 140H257V128H269V140ZM97 141H109V129H97V141ZM269 156H257V144H269V156ZM97 157H109V145H97V157ZM269 172H257V160H269V172ZM97 173H109V161H97V173ZM269 188H257V176H269V188ZM97 189H109V177H97V189ZM269 204H257V192H269V204ZM257 220H269V208H257V220ZM269 236H257V224H269V236ZM97 237H109V225H97V237ZM269 252H257V240H269V252ZM97 253H109V241H97V253ZM269 268H257V256H269V268ZM97 269H109V257H97V269ZM269 284H257V272H269V284ZM97 285H109V273H97V285ZM269 300H257V288H269V300ZM97 301H109V289H97V301ZM269 316H257V304H269V316ZM97 317H109V305H97V317ZM253 332H241V320H253V332ZM97 333H109V321H97V333ZM173 348H161V336H173V348ZM97 349H109V337H97V349ZM173 364H161V352H173V364ZM109 365H97V353H109V365ZM173 380H161V368H173V380ZM97 381H109V369H97V381ZM177 348H189V336H177V348ZM205 348H193V336H205V348ZM209 348H221V336H209V348ZM237 348H225V336H237V348ZM253 108H241V96H253V108ZM157 92H145V80H157V92ZM161 92H173V80H161V92ZM189 92H177V80H189V92ZM193 92H205V80H193V92ZM221 92H209V80H221V92ZM225 92H237V80H225V92ZM97 205H109V193H97V205ZM97 221H109V209H97V221Z"/>
</mask>
<path fill-rule="evenodd" clip-rule="evenodd" d="M129 92H141V80H129V92ZM113 108H125V96H113V108ZM269 124H257V112H269V124ZM97 125H109V113H97V125ZM269 140H257V128H269V140ZM97 141H109V129H97V141ZM269 156H257V144H269V156ZM97 157H109V145H97V157ZM269 172H257V160H269V172ZM97 173H109V161H97V173ZM269 188H257V176H269V188ZM97 189H109V177H97V189ZM269 204H257V192H269V204ZM257 220H269V208H257V220ZM269 236H257V224H269V236ZM97 237H109V225H97V237ZM269 252H257V240H269V252ZM97 253H109V241H97V253ZM269 268H257V256H269V268ZM97 269H109V257H97V269ZM269 284H257V272H269V284ZM97 285H109V273H97V285ZM269 300H257V288H269V300ZM97 301H109V289H97V301ZM269 316H257V304H269V316ZM97 317H109V305H97V317ZM253 332H241V320H253V332ZM97 333H109V321H97V333ZM173 348H161V336H173V348ZM97 349H109V337H97V349ZM173 364H161V352H173V364ZM109 365H97V353H109V365ZM173 380H161V368H173V380ZM97 381H109V369H97V381ZM177 348H189V336H177V348ZM205 348H193V336H205V348ZM209 348H221V336H209V348ZM237 348H225V336H237V348ZM253 108H241V96H253V108ZM157 92H145V80H157V92ZM161 92H173V80H161V92ZM189 92H177V80H189V92ZM193 92H205V80H193V92ZM221 92H209V80H221V92ZM225 92H237V80H225V92ZM97 205H109V193H97V205ZM97 221H109V209H97V221Z" fill="black"/>
<path d="M141 92V94H143V92H141ZM129 92H127V94H129V92ZM141 80H143V78H141V80ZM129 80V78H127V80H129ZM125 108V110H127V108H125ZM113 108H111V110H113V108ZM125 96H127V94H125V96ZM113 96V94H111V96H113ZM257 124H255V126H257V124ZM269 124V126H271V124H269ZM257 112V110H255V112H257ZM269 112H271V110H269V112ZM109 125V127H111V125H109ZM97 125H95V127H97V125ZM109 113H111V111H109V113ZM97 113V111H95V113H97ZM257 140H255V142H257V140ZM269 140V142H271V140H269ZM257 128V126H255V128H257ZM269 128H271V126H269V128ZM109 141V143H111V141H109ZM97 141H95V143H97V141ZM109 129H111V127H109V129ZM97 129V127H95V129H97ZM257 156H255V158H257V156ZM269 156V158H271V156H269ZM257 144V142H255V144H257ZM269 144H271V142H269V144ZM109 157V159H111V157H109ZM97 157H95V159H97V157ZM109 145H111V143H109V145ZM97 145V143H95V145H97ZM257 172H255V174H257V172ZM269 172V174H271V172H269ZM257 160V158H255V160H257ZM269 160H271V158H269V160ZM109 173V175H111V173H109ZM97 173H95V175H97V173ZM109 161H111V159H109V161ZM97 161V159H95V161H97ZM257 188H255V190H257V188ZM269 188V190H271V188H269ZM257 176V174H255V176H257ZM269 176H271V174H269V176ZM109 189V191H111V189H109ZM97 189H95V191H97V189ZM109 177H111V175H109V177ZM97 177V175H95V177H97ZM257 204H255V206H257V204ZM269 204V206H271V204H269ZM257 192V190H255V192H257ZM269 192H271V190H269V192ZM269 220V222H271V220H269ZM257 220H255V222H257V220ZM269 208H271V206H269V208ZM257 208V206H255V208H257ZM257 236H255V238H257V236ZM269 236V238H271V236H269ZM257 224V222H255V224H257ZM269 224H271V222H269V224ZM109 237V239H111V237H109ZM97 237H95V239H97V237ZM109 225H111V223H109V225ZM97 225V223H95V225H97ZM257 252H255V254H257V252ZM269 252V254H271V252H269ZM257 240V238H255V240H257ZM269 240H271V238H269V240ZM109 253V255H111V253H109ZM97 253H95V255H97V253ZM109 241H111V239H109V241ZM97 241V239H95V241H97ZM257 268H255V270H257V268ZM269 268V270H271V268H269ZM257 256V254H255V256H257ZM269 256H271V254H269V256ZM109 269V271H111V269H109ZM97 269H95V271H97V269ZM109 257H111V255H109V257ZM97 257V255H95V257H97ZM257 284H255V286H257V284ZM269 284V286H271V284H269ZM257 272V270H255V272H257ZM269 272H271V270H269V272ZM109 285V287H111V285H109ZM97 285H95V287H97V285ZM109 273H111V271H109V273ZM97 273V271H95V273H97ZM257 300H255V302H257V300ZM269 300V302H271V300H269ZM257 288V286H255V288H257ZM269 288H271V286H269V288ZM109 301V303H111V301H109ZM97 301H95V303H97V301ZM109 289H111V287H109V289ZM97 289V287H95V289H97ZM257 316H255V318H257V316ZM269 316V318H271V316H269ZM257 304V302H255V304H257ZM269 304H271V302H269V304ZM109 317V319H111V317H109ZM97 317H95V319H97V317ZM109 305H111V303H109V305ZM97 305V303H95V305H97ZM241 332H239V334H241V332ZM253 332V334H255V332H253ZM241 320V318H239V320H241ZM253 320H255V318H253V320ZM109 333V335H111V333H109ZM97 333H95V335H97V333ZM109 321H111V319H109V321ZM97 321V319H95V321H97ZM161 348H159V350H161V348ZM173 348V350H175V348H173ZM161 336V334H159V336H161ZM173 336H175V334H173V336ZM109 349V351H111V349H109ZM97 349H95V351H97V349ZM109 337H111V335H109V337ZM97 337V335H95V337H97ZM161 364H159V366H161V364ZM173 364V366H175V364H173ZM161 352V350H159V352H161ZM173 352H175V350H173V352ZM97 365H95V367H97V365ZM109 365V367H111V365H109ZM97 353V351H95V353H97ZM109 353H111V351H109V353ZM161 380H159V382H161V380ZM173 380V382H175V380H173ZM161 368V366H159V368H161ZM173 368H175V366H173V368ZM109 381V383H111V381H109ZM97 381H95V383H97V381ZM109 369H111V367H109V369ZM97 369V367H95V369H97ZM189 348V350H191V348H189ZM177 348H175V350H177V348ZM189 336H191V334H189V336ZM177 336V334H175V336H177ZM193 348H191V350H193V348ZM205 348V350H207V348H205ZM193 336V334H191V336H193ZM205 336H207V334H205V336ZM221 348V350H223V348H221ZM209 348H207V350H209V348ZM221 336H223V334H221V336ZM209 336V334H207V336H209ZM225 348H223V350H225V348ZM237 348V350H239V348H237ZM225 336V334H223V336H225ZM237 336H239V334H237V336ZM241 108H239V110H241V108ZM253 108V110H255V108H253ZM241 96V94H239V96H241ZM253 96H255V94H253V96ZM145 92H143V94H145V92ZM157 92V94H159V92H157ZM145 80V78H143V80H145ZM157 80H159V78H157V80ZM173 92V94H175V92H173ZM161 92H159V94H161V92ZM173 80H175V78H173V80ZM161 80V78H159V80H161ZM177 92H175V94H177V92ZM189 92V94H191V92H189ZM177 80V78H175V80H177ZM189 80H191V78H189V80ZM205 92V94H207V92H205ZM193 92H191V94H193V92ZM205 80H207V78H205V80ZM193 80V78H191V80H193ZM209 92H207V94H209V92ZM221 92V94H223V92H221ZM209 80V78H207V80H209ZM221 80H223V78H221V80ZM237 92V94H239V92H237ZM225 92H223V94H225V92ZM237 80H239V78H237V80ZM225 80V78H223V80H225ZM109 205V207H111V205H109ZM97 205H95V207H97V205ZM109 193H111V191H109V193ZM97 193V191H95V193H97ZM109 221V223H111V221H109ZM97 221H95V223H97V221ZM109 209H111V207H109V209ZM97 209V207H95V209H97ZM141 90H129V94H141V90ZM139 80V92H143V80H139ZM129 82H141V78H129V82ZM131 92V80H127V92H131ZM125 106H113V110H125V106ZM123 96V108H127V96H123ZM113 98H125V94H113V98ZM115 108V96H111V108H115ZM257 126H269V122H257V126ZM255 112V124H259V112H255ZM269 110H257V114H269V110ZM271 124V112H267V124H271ZM109 123H97V127H109V123ZM107 113V125H111V113H107ZM97 115H109V111H97V115ZM99 125V113H95V125H99ZM257 142H269V138H257V142ZM255 128V140H259V128H255ZM269 126H257V130H269V126ZM271 140V128H267V140H271ZM109 139H97V143H109V139ZM107 129V141H111V129H107ZM97 131H109V127H97V131ZM99 141V129H95V141H99ZM257 158H269V154H257V158ZM255 144V156H259V144H255ZM269 142H257V146H269V142ZM271 156V144H267V156H271ZM109 155H97V159H109V155ZM107 145V157H111V145H107ZM97 147H109V143H97V147ZM99 157V145H95V157H99ZM257 174H269V170H257V174ZM255 160V172H259V160H255ZM269 158H257V162H269V158ZM271 172V160H267V172H271ZM109 171H97V175H109V171ZM107 161V173H111V161H107ZM97 163H109V159H97V163ZM99 173V161H95V173H99ZM257 190H269V186H257V190ZM255 176V188H259V176H255ZM269 174H257V178H269V174ZM271 188V176H267V188H271ZM109 187H97V191H109V187ZM107 177V189H111V177H107ZM97 179H109V175H97V179ZM99 189V177H95V189H99ZM257 206H269V202H257V206ZM255 192V204H259V192H255ZM269 190H257V194H269V190ZM271 204V192H267V204H271ZM269 218H257V222H269V218ZM267 208V220H271V208H267ZM257 210H269V206H257V210ZM259 220V208H255V220H259ZM257 238H269V234H257V238ZM255 224V236H259V224H255ZM269 222H257V226H269V222ZM271 236V224H267V236H271ZM109 235H97V239H109V235ZM107 225V237H111V225H107ZM97 227H109V223H97V227ZM99 237V225H95V237H99ZM257 254H269V250H257V254ZM255 240V252H259V240H255ZM269 238H257V242H269V238ZM271 252V240H267V252H271ZM109 251H97V255H109V251ZM107 241V253H111V241H107ZM97 243H109V239H97V243ZM99 253V241H95V253H99ZM257 270H269V266H257V270ZM255 256V268H259V256H255ZM269 254H257V258H269V254ZM271 268V256H267V268H271ZM109 267H97V271H109V267ZM107 257V269H111V257H107ZM97 259H109V255H97V259ZM99 269V257H95V269H99ZM257 286H269V282H257V286ZM255 272V284H259V272H255ZM269 270H257V274H269V270ZM271 284V272H267V284H271ZM109 283H97V287H109V283ZM107 273V285H111V273H107ZM97 275H109V271H97V275ZM99 285V273H95V285H99ZM257 302H269V298H257V302ZM255 288V300H259V288H255ZM269 286H257V290H269V286ZM271 300V288H267V300H271ZM109 299H97V303H109V299ZM107 289V301H111V289H107ZM97 291H109V287H97V291ZM99 301V289H95V301H99ZM257 318H269V314H257V318ZM255 304V316H259V304H255ZM269 302H257V306H269V302ZM271 316V304H267V316H271ZM109 315H97V319H109V315ZM107 305V317H111V305H107ZM97 307H109V303H97V307ZM99 317V305H95V317H99ZM241 334H253V330H241V334ZM239 320V332H243V320H239ZM253 318H241V322H253V318ZM255 332V320H251V332H255ZM109 331H97V335H109V331ZM107 321V333H111V321H107ZM97 323H109V319H97V323ZM99 333V321H95V333H99ZM161 350H173V346H161V350ZM159 336V348H163V336H159ZM173 334H161V338H173V334ZM175 348V336H171V348H175ZM109 347H97V351H109V347ZM107 337V349H111V337H107ZM97 339H109V335H97V339ZM99 349V337H95V349H99ZM161 366H173V362H161V366ZM159 352V364H163V352H159ZM173 350H161V354H173V350ZM175 364V352H171V364H175ZM97 367H109V363H97V367ZM95 353V365H99V353H95ZM109 351H97V355H109V351ZM111 365V353H107V365H111ZM161 382H173V378H161V382ZM159 368V380H163V368H159ZM173 366H161V370H173V366ZM175 380V368H171V380H175ZM109 379H97V383H109V379ZM107 369V381H111V369H107ZM97 371H109V367H97V371ZM99 381V369H95V381H99ZM189 346H177V350H189V346ZM187 336V348H191V336H187ZM177 338H189V334H177V338ZM179 348V336H175V348H179ZM193 350H205V346H193V350ZM191 336V348H195V336H191ZM205 334H193V338H205V334ZM207 348V336H203V348H207ZM221 346H209V350H221V346ZM219 336V348H223V336H219ZM209 338H221V334H209V338ZM211 348V336H207V348H211ZM225 350H237V346H225V350ZM223 336V348H227V336H223ZM237 334H225V338H237V334ZM239 348V336H235V348H239ZM241 110H253V106H241V110ZM239 96V108H243V96H239ZM253 94H241V98H253V94ZM255 108V96H251V108H255ZM145 94H157V90H145V94ZM143 80V92H147V80H143ZM157 78H145V82H157V78ZM159 92V80H155V92H159ZM173 90H161V94H173V90ZM171 80V92H175V80H171ZM161 82H173V78H161V82ZM163 92V80H159V92H163ZM177 94H189V90H177V94ZM175 80V92H179V80H175ZM189 78H177V82H189V78ZM191 92V80H187V92H191ZM205 90H193V94H205V90ZM203 80V92H207V80H203ZM193 82H205V78H193V82ZM195 92V80H191V92H195ZM209 94H221V90H209V94ZM207 80V92H211V80H207ZM221 78H209V82H221V78ZM223 92V80H219V92H223ZM237 90H225V94H237V90ZM235 80V92H239V80H235ZM225 82H237V78H225V82ZM227 92V80H223V92H227ZM109 203H97V207H109V203ZM107 193V205H111V193H107ZM97 195H109V191H97V195ZM99 205V193H95V205H99ZM109 219H97V223H109V219ZM107 209V221H111V209H107ZM97 211H109V207H97V211ZM99 221V209H95V221H99Z" fill="white" mask="url(#path-4-inside-2_245_85808)"/>
<path fill-rule="evenodd" clip-rule="evenodd" d="M129 13H141V1H129V13ZM97 29H109V17H97V29ZM65 45H77V33H65V45ZM49 61H61V49H49V61ZM33 77H45V65H33V77ZM45 93H33V81H45V93ZM17 109H29V97H17V109ZM29 125H17V113H29V125ZM1 141H13V129H1V141ZM13 157H1V145H13V157ZM1 173H13V161H1V173ZM1 189H13V177H1V189ZM1 205H13V193H1V205ZM1 221H13V209H1V221ZM1 237H13V225H1V237ZM13 253H1V241H13V253ZM17 269H29V257H17V269ZM29 285H17V273H29V285ZM33 301H45V289H33V301ZM45 317H33V305H45V317ZM61 333H49V321H61V333ZM65 349H77V337H65V349ZM189 365H177V353H189V365ZM189 381H177V369H189V381ZM205 381H193V369H205V381ZM209 381H221V369H209V381ZM237 381H225V369H237V381ZM241 381H253V369H241V381ZM193 365H205V353H193V365ZM221 365H209V353H221V365ZM225 365H237V353H225V365ZM253 365H241V353H253V365ZM257 365H269V353H257V365ZM285 365H273V353H285V365ZM93 349H81V337H93V349ZM241 349H253V337H241V349ZM269 349H257V337H269V349ZM273 349H285V337H273V349ZM301 349H289V337H301V349ZM305 349H317V337H305V349ZM65 333H77V321H65V333ZM93 333H81V321H93V333ZM257 333H269V321H257V333ZM285 333H273V321H285V333ZM289 333H301V321H289V333ZM317 333H305V321H317V333ZM321 333H333V321H321V333ZM49 317H61V305H49V317ZM77 317H65V305H77V317ZM81 317H93V305H81V317ZM285 317H273V305H285V317ZM289 317H301V305H289V317ZM317 317H305V305H317V317ZM321 317H333V305H321V317ZM349 317H337V305H349V317ZM61 301H49V289H61V301ZM65 301H77V289H65V301ZM93 301H81V289H93V301ZM273 301H285V289H273V301ZM301 301H289V289H301V301ZM305 301H317V289H305V301ZM333 301H321V289H333V301ZM337 301H349V289H337V301ZM33 285H45V273H33V285ZM61 285H49V273H61V285ZM65 285H77V273H65V285ZM93 285H81V273H93V285ZM273 285H285V273H273V285ZM301 285H289V273H301V285ZM305 285H317V273H305V285ZM333 285H321V273H333V285ZM337 285H349V273H337V285ZM365 285H353V273H365V285ZM45 269H33V257H45V269ZM49 269H61V257H49V269ZM77 269H65V257H77V269ZM81 269H93V257H81V269ZM285 269H273V257H285V269ZM289 269H301V257H289V269ZM317 269H305V257H317V269ZM321 269H333V257H321V269ZM349 269H337V257H349V269ZM353 269H365V257H353V269ZM17 253H29V241H17V253ZM45 253H33V241H45V253ZM49 253H61V241H49V253ZM77 253H65V241H77V253ZM81 253H93V241H81V253ZM285 253H273V241H285V253ZM289 253H301V241H289V253ZM317 253H305V241H317V253ZM321 253H333V241H321V253ZM349 253H337V241H349V253ZM353 253H365V241H353V253ZM381 253H369V241H381V253ZM29 237H17V225H29V237ZM33 237H45V225H33V237ZM61 237H49V225H61V237ZM65 237H77V225H65V237ZM285 237H273V225H285V237ZM289 237H301V225H289V237ZM317 237H305V225H317V237ZM321 237H333V225H321V237ZM349 237H337V225H349V237ZM353 237H365V225H353V237ZM381 237H369V225H381V237ZM29 221H17V209H29V221ZM33 221H45V209H33V221ZM61 221H49V209H61V221ZM65 221H77V209H65V221ZM285 221H273V209H285V221ZM289 221H301V209H289V221ZM317 221H305V209H317V221ZM321 221H333V209H321V221ZM349 221H337V209H349V221ZM353 221H365V209H353V221ZM381 221H369V209H381V221ZM29 205H17V193H29V205ZM33 205H45V193H33V205ZM61 205H49V193H61V205ZM81 205H93V193H81V205ZM285 205H273V193H285V205ZM289 205H301V193H289V205ZM317 205H305V193H317V205ZM321 205H333V193H321V205ZM349 205H337V193H349V205ZM353 205H365V193H353V205ZM381 205H369V193H381V205ZM29 189H17V177H29V189ZM33 189H45V177H33V189ZM61 189H49V177H61V189ZM65 189H77V177H65V189ZM285 189H273V177H285V189ZM289 189H301V177H289V189ZM317 189H305V177H317V189ZM321 189H333V177H321V189ZM349 189H337V177H349V189ZM353 189H365V177H353V189ZM381 189H369V177H381V189ZM29 173H17V161H29V173ZM33 173H45V161H33V173ZM61 173H49V161H61V173ZM65 173H77V161H65V173ZM93 173H81V161H93V173ZM273 173H285V161H273V173ZM301 173H289V161H301V173ZM305 173H317V161H305V173ZM333 173H321V161H333V173ZM337 173H349V161H337V173ZM365 173H353V161H365V173ZM369 173H381V161H369V173ZM17 157H29V145H17V157ZM45 157H33V145H45V157ZM49 157H61V145H49V157ZM77 157H65V145H77V157ZM81 157H93V145H81V157ZM285 157H273V145H285V157ZM289 157H301V145H289V157ZM317 157H305V145H317V157ZM321 157H333V145H321V157ZM349 157H337V145H349V157ZM353 157H365V145H353V157ZM381 157H369V145H381V157ZM29 141H17V129H29V141ZM33 141H45V129H33V141ZM61 141H49V129H61V141ZM65 141H77V129H65V141ZM93 141H81V129H93V141ZM273 141H285V129H273V141ZM301 141H289V129H301V141ZM305 141H317V129H305V141ZM333 141H321V129H333V141ZM337 141H349V129H337V141ZM365 141H353V129H365V141ZM369 141H381V129H369V141ZM33 125H45V113H33V125ZM61 125H49V113H61V125ZM65 125H77V113H65V125ZM93 125H81V113H93V125ZM273 125H285V113H273V125ZM301 125H289V113H301V125ZM305 125H317V113H305V125ZM333 125H321V113H333V125ZM337 125H349V113H337V125ZM365 125H353V113H365V125ZM45 109H33V97H45V109ZM49 109H61V97H49V109ZM77 109H65V97H77V109ZM81 109H93V97H81V109ZM109 109H97V97H109V109ZM257 109H269V97H257V109ZM285 109H273V97H285V109ZM289 109H301V97H289V109ZM317 109H305V97H317V109ZM321 109H333V97H321V109ZM349 109H337V97H349V109ZM353 109H365V97H353V109ZM49 93H61V81H49V93ZM77 93H65V81H77V93ZM81 93H93V81H81V93ZM109 93H97V81H109V93ZM113 93H125V81H113V93ZM93 237H81V225H93V237ZM81 221H93V209H81V221ZM77 205H65V193H77V205ZM81 189H93V177H81V189ZM253 93H241V81H253V93ZM257 93H269V81H257V93ZM285 93H273V81H285V93ZM289 93H301V81H289V93ZM317 93H305V81H317V93ZM321 93H333V81H321V93ZM349 93H337V81H349V93ZM61 77H49V65H61V77ZM65 77H77V65H65V77ZM93 77H81V65H93V77ZM97 77H109V65H97V77ZM125 77H113V65H125V77ZM129 77H141V65H129V77ZM157 77H145V65H157V77ZM161 77H173V65H161V77ZM189 77H177V65H189V77ZM193 77H205V65H193V77ZM221 77H209V65H221V77ZM225 77H237V65H225V77ZM253 77H241V65H253V77ZM257 77H269V65H257V77ZM285 77H273V65H285V77ZM289 77H301V65H289V77ZM317 77H305V65H317V77ZM321 77H333V65H321V77ZM349 77H337V65H349V77ZM77 61H65V49H77V61ZM81 61H93V49H81V61ZM109 61H97V49H109V61ZM113 61H125V49H113V61ZM141 61H129V49H141V61ZM145 61H157V49H145V61ZM173 61H161V49H173V61ZM177 61H189V49H177V61ZM205 61H193V49H205V61ZM209 61H221V49H209V61ZM237 61H225V49H237V61ZM241 61H253V49H241V61ZM269 61H257V49H269V61ZM273 61H285V49H273V61ZM301 61H289V49H301V61ZM305 61H317V49H305V61ZM333 61H321V49H333V61ZM93 45H81V33H93V45ZM97 45H109V33H97V45ZM125 45H113V33H125V45ZM129 45H141V33H129V45ZM157 45H145V33H157V45ZM161 45H173V33H161V45ZM189 45H177V33H189V45ZM193 45H205V33H193V45ZM221 45H209V33H221V45ZM225 45H237V33H225V45ZM253 45H241V33H253V45ZM257 45H269V33H257V45ZM285 45H273V33H285V45ZM289 45H301V33H289V45ZM317 45H305V33H317V45ZM125 29H113V17H125V29ZM129 29H141V17H129V29ZM157 29H145V17H157V29ZM161 29H173V17H161V29ZM189 29H177V17H189V29ZM193 29H205V17H193V29ZM221 29H209V17H221V29ZM225 29H237V17H225V29ZM253 29H241V17H253V29ZM257 29H269V17H257V29ZM285 29H273V17H285V29ZM157 13H145V1H157V13ZM161 13H173V1H161V13ZM189 13H177V1H189V13ZM193 13H205V1H193V13ZM221 13H209V1H221V13ZM225 13H237V1H225V13ZM253 13H241V1H253V13Z" fill="black"/>
</svg>
